<?xml version="1.0" encoding="UTF-8"?>
<!DOCTYPE svg PUBLIC "-//W3C//DTD SVG 1.1//EN" "http://www.w3.org/Graphics/SVG/1.1/DTD/svg11.dtd">
<!-- Creator: CorelDRAW X7 -->
<svg xmlns="http://www.w3.org/2000/svg" xml:space="preserve" width="3.93701in" height="3.93701in" version="1.1" style="shape-rendering:geometricPrecision; text-rendering:geometricPrecision; image-rendering:optimizeQuality; fill-rule:evenodd; clip-rule:evenodd"
viewBox="0 0 3937 3937"
 xmlns:xlink="http://www.w3.org/1999/xlink">
 <defs>
  <style type="text/css">
   <![CDATA[
    .fil0 {fill:#EC268F}
   ]]>
  </style>
 </defs>
 <g id="Layer_x0020_1">
  <metadata id="CorelCorpID_0Corel-Layer"/>
  <g id="_1955109756352">
   <path class="fil0" d="M1246 2913l4 -1148c39,-16 437,-9 507,-6 104,3 121,-128 62,-172 -50,-36 -210,-22 -284,-22 -200,0 -400,0 -601,0 -101,0 -191,-5 -201,103 -5,54 -5,565 2,605 20,102 112,100 194,100 -3,160 -8,353 0,511 4,85 57,110 143,109 82,0 160,0 174,-80z"/>
   <path class="fil0" d="M1144 863c73,-20 630,-6 753,-6 362,0 790,-7 1145,0 42,0 46,7 47,49 4,181 4,1025 -9,1038 -43,27 -353,10 -430,10l-868 0c-29,0 -399,-10 -415,9 -12,22 -12,75 1,96 16,17 76,10 102,10 275,0 1706,12 1725,-9 22,-39 9,-565 9,-661 0,-84 12,-619 -13,-655 -63,-11 -202,-3 -273,-3 -275,0 -1874,-9 -1889,6 -17,29 -17,174 0,196 21,16 78,11 104,4 3,-28 -3,-58 11,-84z"/>
   <path class="fil0" d="M2352 2558c17,-18 13,-10 29,-23 29,-22 53,-52 68,-84 74,-159 -39,-333 -211,-335 -173,-2 -290,181 -211,341 31,61 60,61 93,100 -147,81 -241,211 -269,383 -15,92 -12,123 123,193 210,109 441,80 619,-68 78,-64 -26,-291 -72,-356 -23,-32 -49,-59 -76,-83 -50,-44 -68,-46 -93,-68z"/>
   <path class="fil0" d="M1761 2593c26,-33 118,-85 85,-215 -49,-186 -313,-183 -364,-4 -38,131 53,186 89,220 -16,15 -32,23 -46,33 -118,86 -198,293 -156,358 24,37 132,93 196,109 120,29 160,0 264,-12 -34,-72 -26,-124 -4,-206 16,-63 66,-138 72,-174 -39,-41 -74,-79 -136,-109z"/>
   <path class="fil0" d="M2882 2587c164,-96 93,-358 -109,-348 -87,4 -153,67 -171,140 -30,122 42,169 91,215 -35,37 -53,18 -125,116 57,108 127,249 69,369 96,22 159,43 266,14 58,-16 180,-72 197,-114 25,-60 -31,-198 -59,-240 -72,-108 -116,-112 -159,-152z"/>
   <path class="fil0" d="M1053 1065c-303,55 -215,500 80,445 291,-53 209,-498 -80,-445z"/>
   <path class="fil0" d="M1246 2913c18,-34 9,-1021 7,-1148l485 1 19 -7c-70,-3 -468,-10 -507,6l-4 1148z"/>
  </g>
 </g>
</svg>
