<?xml version="1.0" encoding="UTF-8"?>
<!DOCTYPE svg PUBLIC "-//W3C//DTD SVG 1.1//EN" "http://www.w3.org/Graphics/SVG/1.1/DTD/svg11.dtd">
<!-- Creator: CorelDRAW X7 -->
<svg xmlns="http://www.w3.org/2000/svg" xml:space="preserve" width="3.93701in" height="3.93701in" version="1.1" style="shape-rendering:geometricPrecision; text-rendering:geometricPrecision; image-rendering:optimizeQuality; fill-rule:evenodd; clip-rule:evenodd"
viewBox="0 0 3937 3937"
 xmlns:xlink="http://www.w3.org/1999/xlink">
 <defs>
  <style type="text/css">
   <![CDATA[
    .fil0 {fill:#FEFEFE}
   ]]>
  </style>
 </defs>
 <g id="Layer_x0020_1">
  <metadata id="CorelCorpID_0Corel-Layer"/>
  <g id="_1955195441552">
   <path class="fil0" d="M2030 2084l0 936c29,-6 56,-20 85,-30 142,-50 288,-110 430,-161 31,-11 57,-21 87,-33 73,-29 56,-49 56,-195 -124,0 -206,-75 -206,-197 0,-101 -16,-217 57,-285 14,-13 40,-30 60,-38 25,-10 56,-14 89,-14l0 -140c0,-32 -25,-56 -55,-60 -22,-3 -72,20 -90,27l-341 127c-29,11 -152,61 -172,63z"/>
   <path class="fil0" d="M1249 1927l0 140c124,0 206,75 206,197 0,123 23,269 -117,323 -25,10 -56,14 -89,14 0,131 -18,169 53,194l559 210c15,5 29,12 46,15l0 -936c-22,-2 -318,-118 -343,-126 -31,-11 -233,-93 -256,-91 -30,2 -59,26 -59,60z"/>
   <path class="fil0" d="M1619 1241c0,96 9,148 64,228 56,80 164,146 261,146 72,0 110,-2 177,-33 105,-49 197,-175 197,-292 0,-96 -9,-148 -64,-227 -56,-80 -164,-146 -261,-146 -76,0 -105,1 -177,32 -103,47 -197,177 -197,292z"/>
   <path class="fil0" d="M1488 1800c17,8 40,15 60,22l421 157 417 -156c21,-8 45,-14 63,-23 -23,-34 -161,-118 -214,-135 -17,-6 -19,3 -56,21 -20,11 -37,18 -60,26 -128,44 -275,30 -389,-40 -26,-15 -33,-7 -88,20 -34,17 -137,81 -154,108z"/>
   <path class="fil0" d="M1085 2326c0,90 61,152 136,152l57 0c25,0 54,-28 54,-53l0 -181c0,-25 -29,-54 -54,-54l-57 0c-71,0 -136,66 -136,136z"/>
   <path class="fil0" d="M2605 2244l0 181c0,25 29,53 54,53l57 0c75,0 136,-62 136,-152 0,-70 -65,-136 -136,-136l-57 0c-25,0 -54,29 -54,54z"/>
  </g>
 </g>
</svg>
