<?xml version="1.0" encoding="UTF-8"?>
<!DOCTYPE svg PUBLIC "-//W3C//DTD SVG 1.1//EN" "http://www.w3.org/Graphics/SVG/1.1/DTD/svg11.dtd">
<!-- Creator: CorelDRAW X7 -->
<svg xmlns="http://www.w3.org/2000/svg" xml:space="preserve" width="3.93701in" height="3.93701in" version="1.1" style="shape-rendering:geometricPrecision; text-rendering:geometricPrecision; image-rendering:optimizeQuality; fill-rule:evenodd; clip-rule:evenodd"
viewBox="0 0 3937 3937"
 xmlns:xlink="http://www.w3.org/1999/xlink">
 <defs>
  <style type="text/css">
   <![CDATA[
    .fil0 {fill:#FEFEFE}
   ]]>
  </style>
 </defs>
 <g id="Layer_x0020_1">
  <metadata id="CorelCorpID_0Corel-Layer"/>
  <g id="_1990628466688">
   <path class="fil0" d="M1762 1089c-31,7 -75,11 -106,17 -61,12 -141,31 -197,53l-93 35c-61,-41 -60,-64 -169,-64 -99,0 -191,98 -191,205 0,68 50,160 100,173l-194 317c-10,17 -20,27 -25,48l160 0c30,-46 146,-244 168,-269 4,15 71,117 81,134l83 135 160 0c-5,-21 -15,-31 -26,-48l-167 -270c-8,-13 -22,-32 -26,-47 54,-14 100,-107 100,-187 76,-17 169,-76 342,-91l0 1367 410 0 0 -1367c61,5 127,22 179,36 58,14 133,48 163,55 0,80 46,173 100,187 -8,32 -211,333 -218,365l159 0c14,-22 28,-45 42,-68 15,-23 27,-43 41,-67l74 -119c2,-3 3,-5 5,-8 7,-8 3,-3 7,-7l38 66c15,24 28,43 42,68l84 135 159 0c-5,-21 -40,-71 -53,-93 -19,-32 -38,-60 -56,-90l-83 -135c-9,-13 -23,-32 -27,-47 65,-17 162,-186 45,-313 -62,-67 -170,-85 -247,-44 -23,13 -38,30 -57,43 -13,-3 -30,-10 -44,-16 -17,-6 -30,-11 -46,-17 -56,-22 -137,-42 -197,-54 -33,-7 -77,-10 -110,-18 0,-93 3,-143 -40,-197 -40,-50 -93,-77 -148,-81l-33 0c-55,4 -109,32 -149,81 -43,54 -40,103 -40,197z"/>
   <path class="fil0" d="M1302 3008l-160 0 0 136 1650 0 0 -136 -159 0c-2,-20 -14,-48 -20,-67 -11,-32 -65,-187 -67,-207l-1158 0c-2,30 -84,244 -86,274z"/>
   <polygon class="fil0" points="800,2370 1625,2370 1625,2005 800,2005 "/>
   <polygon class="fil0" points="2309,2370 3134,2370 3134,2005 2309,2005 "/>
  </g>
 </g>
</svg>
