<?xml version="1.0" encoding="UTF-8"?>
<!DOCTYPE svg PUBLIC "-//W3C//DTD SVG 1.1//EN" "http://www.w3.org/Graphics/SVG/1.1/DTD/svg11.dtd">
<!-- Creator: CorelDRAW X7 -->
<svg xmlns="http://www.w3.org/2000/svg" xml:space="preserve" width="3.93701in" height="3.93701in" version="1.1" style="shape-rendering:geometricPrecision; text-rendering:geometricPrecision; image-rendering:optimizeQuality; fill-rule:evenodd; clip-rule:evenodd"
viewBox="0 0 3937 3937"
 xmlns:xlink="http://www.w3.org/1999/xlink">
 <defs>
  <style type="text/css">
   <![CDATA[
    .fil0 {fill:none}
    .fil1 {fill:#EC268F}
   ]]>
  </style>
 </defs>
 <g id="Layer_x0020_1">
  <metadata id="CorelCorpID_0Corel-Layer"/>
  <rect class="fil0" width="3937" height="3937"/>
  <g id="_1955188175968">
   <path class="fil1" d="M1911 944c-17,4 -41,6 -58,9 -33,7 -77,17 -109,29l-51 19c-34,-22 -33,-35 -93,-35 -54,0 -105,54 -105,113 0,38 28,88 55,96l-106 174c-6,9 -12,15 -14,26l87 0c17,-25 81,-134 93,-148 3,9 39,64 45,74l46 74 88 0c-3,-11 -9,-17 -14,-26l-92 -149c-5,-7 -13,-17 -15,-25 30,-8 55,-59 55,-103 42,-10 93,-43 188,-51l0 753 226 0 0 -753c34,3 70,13 99,20 32,8 73,27 90,31 0,44 25,94 55,103 -5,17 -117,183 -121,200l88 0c8,-12 15,-24 23,-37 8,-13 15,-24 23,-37l40 -65c2,-2 2,-3 4,-5 3,-4 1,-1 3,-4l21 37c8,13 16,23 23,37l46 74 88 0c-2,-11 -22,-39 -29,-51 -11,-17 -21,-33 -31,-49l-46 -75c-4,-7 -12,-17 -14,-25 35,-10 89,-103 24,-173 -34,-37 -93,-47 -136,-24 -12,7 -21,16 -31,23 -7,-1 -16,-5 -24,-8 -10,-4 -17,-6 -26,-10 -30,-12 -75,-23 -108,-30 -18,-3 -43,-5 -61,-9 0,-52 2,-79 -22,-109 -22,-27 -51,-42 -81,-44l-19 0c-30,2 -59,17 -81,44 -24,30 -23,57 -23,109z"/>
   <path class="fil1" d="M1658 2000l-88 0 0 76 909 0 0 -76 -88 0c-1,-10 -8,-26 -11,-36 -6,-18 -36,-103 -37,-114l-637 0c-2,16 -47,134 -48,150z"/>
   <polygon class="fil1" points="1382,1649 1836,1649 1836,1448 1382,1448 "/>
   <polygon class="fil1" points="2213,1649 2667,1649 2667,1448 2213,1448 "/>
  </g>
 </g>
</svg>
