<?xml version="1.0" encoding="UTF-8"?>
<!DOCTYPE svg PUBLIC "-//W3C//DTD SVG 1.1//EN" "http://www.w3.org/Graphics/SVG/1.1/DTD/svg11.dtd">
<!-- Creator: CorelDRAW X7 -->
<svg xmlns="http://www.w3.org/2000/svg" xml:space="preserve" width="3.93701in" height="3.93701in" version="1.1" style="shape-rendering:geometricPrecision; text-rendering:geometricPrecision; image-rendering:optimizeQuality; fill-rule:evenodd; clip-rule:evenodd"
viewBox="0 0 3937 3937"
 xmlns:xlink="http://www.w3.org/1999/xlink">
 <defs>
  <style type="text/css">
   <![CDATA[
    .fil0 {fill:#FEFEFE}
   ]]>
  </style>
 </defs>
 <g id="Layer_x0020_1">
  <metadata id="CorelCorpID_0Corel-Layer"/>
  <g id="_1955166353760">
   <path class="fil0" d="M1914 1545c0,-132 137,-100 227,-76 172,47 314,212 342,393 2,16 8,61 7,74 -4,107 -137,112 -166,36 -11,-29 -6,-71 -14,-106 -28,-117 -122,-211 -239,-239 -30,-7 -157,5 -157,-82zm-761 424c0,84 23,205 51,280 47,122 107,212 195,300 70,69 108,75 166,165 17,26 42,87 45,124l712 0c19,-41 18,-103 99,-183 81,-81 98,-78 182,-177 34,-40 60,-86 85,-133 4,-8 8,-13 12,-21 242,-484 -62,-1091 -641,-1164 -216,-27 -411,40 -560,143 -172,119 -302,323 -333,531 -6,38 -13,95 -13,135z"/>
   <path class="fil0" d="M1621 3143c0,110 82,217 190,217l315 0c97,0 190,-94 190,-190l0 -158 -695 0 0 131z"/>
   <path class="fil0" d="M2643 1197c0,64 33,97 97,97 41,0 111,-81 138,-107 32,-32 102,-86 102,-143 0,-50 -66,-140 -167,-47l-92 93c-23,21 -78,78 -78,107z"/>
   <path class="fil0" d="M957 2893c0,46 41,87 87,87 57,0 111,-70 143,-102 41,-42 107,-92 107,-148 0,-58 -73,-142 -172,-42l-28 31c-4,5 -3,3 -8,8 -1,1 -2,2 -3,3l-23 21c0,1 -2,2 -2,3l-11 10c-33,35 -90,80 -90,129z"/>
   <path class="fil0" d="M2643 2730c0,52 57,93 110,145 56,56 86,105 145,105 37,0 82,-40 82,-87 0,-58 -69,-110 -102,-143 -42,-42 -90,-107 -148,-107 -50,0 -87,37 -87,87z"/>
   <path class="fil0" d="M957 1039c0,59 48,88 105,145 52,53 93,110 145,110 56,0 87,-40 87,-97 0,-43 -80,-110 -107,-138 -39,-39 -83,-102 -148,-102 -38,0 -82,44 -82,82z"/>
   <path class="fil0" d="M577 1958c0,60 37,97 76,97l250 0c99,0 99,-173 0,-173l-250 0c-34,0 -76,42 -76,76z"/>
   <path class="fil0" d="M1882 653l0 250c0,99 173,99 173,0l0 -250c0,-39 -37,-76 -97,-76 -34,0 -76,42 -76,76z"/>
   <path class="fil0" d="M2958 1969c0,42 36,86 76,86l250 0c39,0 76,-37 76,-97 0,-34 -42,-76 -76,-76l-250 0c-40,0 -76,44 -76,87z"/>
  </g>
 </g>
</svg>
