<?xml version="1.0" encoding="UTF-8"?>
<!DOCTYPE svg PUBLIC "-//W3C//DTD SVG 1.1//EN" "http://www.w3.org/Graphics/SVG/1.1/DTD/svg11.dtd">
<!-- Creator: CorelDRAW X7 -->
<svg xmlns="http://www.w3.org/2000/svg" xml:space="preserve" width="3.93701in" height="3.93701in" version="1.1" style="shape-rendering:geometricPrecision; text-rendering:geometricPrecision; image-rendering:optimizeQuality; fill-rule:evenodd; clip-rule:evenodd"
viewBox="0 0 3937 3937"
 xmlns:xlink="http://www.w3.org/1999/xlink">
 <defs>
  <style type="text/css">
   <![CDATA[
    .fil0 {fill:black}
   ]]>
  </style>
 </defs>
 <g id="Layer_x0020_1">
  <metadata id="CorelCorpID_0Corel-Layer"/>
  <g id="_1954822368800">
   <path class="fil0" d="M2088 1721c0,55 12,97 49,135 23,23 63,53 107,53l0 4c-96,0 -191,70 -235,147 -29,50 -26,71 -37,92 22,0 63,8 83,14 72,21 128,69 168,130 27,42 43,101 44,151 2,53 -20,113 -43,156 21,14 39,31 57,51 7,8 17,20 23,28 7,11 13,25 23,32 15,-10 39,-68 104,-111 -45,-86 -56,-165 -22,-258 13,-37 38,-76 63,-100 43,-42 91,-61 91,-73 0,-29 -20,-81 -31,-101 -11,-22 -39,-59 -56,-76l-35 -28c-40,-28 -96,-54 -149,-54l0 -4c77,0 155,-88 155,-164 0,-57 -10,-95 -50,-138 -80,-86 -237,-69 -292,48 -7,17 -17,43 -17,66z"/>
   <path class="fil0" d="M1490 1721c0,55 11,97 49,135 23,23 62,53 106,53l0 4c-99,0 -192,73 -239,155 -11,20 -32,74 -32,104 0,21 108,43 153,170 20,55 24,81 19,137 -5,51 -21,88 -40,124 65,43 89,101 104,111l46 -60c18,-20 36,-37 57,-51 -41,-78 -56,-150 -30,-238 19,-66 70,-132 128,-167 45,-27 99,-45 154,-46 -21,-42 -11,-81 -93,-163 -34,-33 -112,-76 -179,-76l0 -4c44,0 84,-30 107,-53 51,-52 63,-132 33,-199 -24,-54 -86,-103 -148,-103 -60,0 -98,6 -143,51 -27,27 -52,75 -52,116z"/>
   <path class="fil0" d="M2507 2439c0,55 11,97 49,135 23,23 63,53 107,53l0 4c-42,0 -77,15 -108,28 -154,66 -230,331 -108,331l483 0c37,0 56,-25 60,-61l0 -29c-5,-56 -37,-127 -86,-180 -20,-22 -53,-45 -80,-59 -27,-14 -75,-30 -114,-30l0 -4c78,0 156,-88 156,-164 0,-57 -11,-95 -50,-138 -80,-86 -237,-69 -292,48 -8,17 -17,43 -17,66z"/>
   <path class="fil0" d="M1071 2439c0,55 11,97 49,135 23,23 63,53 107,53l0 4c-41,0 -85,17 -112,31 -101,53 -168,161 -168,288 0,25 23,40 48,40l495 0c105,0 77,-228 -106,-330 -23,-13 -75,-29 -110,-29l0 -4c78,0 156,-88 156,-164 0,-57 -10,-95 -50,-138 -80,-86 -237,-69 -292,48 -8,17 -17,43 -17,66z"/>
   <path class="fil0" d="M1789 2439c0,55 11,97 49,135 23,23 63,53 107,53l0 4c-135,0 -276,132 -276,299 0,34 26,60 60,60l479 0c121,0 47,-261 -106,-330 -29,-13 -69,-29 -110,-29l0 -4c78,0 156,-88 156,-164 0,-37 -1,-53 -16,-88 -24,-54 -86,-103 -148,-103 -60,0 -98,6 -143,51 -27,27 -52,74 -52,116z"/>
   <path class="fil0" d="M1789 1119c0,47 20,68 68,68 25,0 36,-22 52,-32 0,30 -5,216 3,235 19,47 89,49 111,3 11,-21 5,-207 5,-238 30,20 18,32 68,32 33,0 52,-29 52,-68 0,-23 -20,-38 -33,-51 -25,-25 -108,-121 -139,-121 -48,0 -59,26 -110,77 -25,25 -77,68 -77,95z"/>
   <path class="fil0" d="M2387 1119c0,47 21,68 68,68 25,0 36,-22 52,-32 0,30 -4,216 4,235 19,47 88,49 111,3 10,-21 5,-207 5,-238 29,20 17,32 67,32 33,0 52,-29 52,-68 0,-31 -93,-112 -118,-137 -20,-19 -36,-31 -52,-35l-19 0c-14,4 -30,14 -49,33 -25,25 -121,108 -121,139z"/>
   <path class="fil0" d="M1191 1119c0,47 20,68 68,68 25,0 36,-22 51,-32 0,30 -4,216 4,235 19,47 89,49 111,3 10,-21 5,-207 5,-238 30,20 17,32 68,32 32,0 52,-29 52,-68 0,-31 -94,-112 -119,-137 -20,-19 -36,-31 -52,-35l-18 0c-15,4 -31,14 -50,33 -24,25 -120,108 -120,139z"/>
  </g>
 </g>
</svg>
