<?xml version="1.0" encoding="UTF-8"?>
<!DOCTYPE svg PUBLIC "-//W3C//DTD SVG 1.1//EN" "http://www.w3.org/Graphics/SVG/1.1/DTD/svg11.dtd">
<!-- Creator: CorelDRAW X7 -->
<svg xmlns="http://www.w3.org/2000/svg" xml:space="preserve" width="3.93701in" height="3.93701in" version="1.1" style="shape-rendering:geometricPrecision; text-rendering:geometricPrecision; image-rendering:optimizeQuality; fill-rule:evenodd; clip-rule:evenodd"
viewBox="0 0 3937 3937"
 xmlns:xlink="http://www.w3.org/1999/xlink">
 <defs>
  <style type="text/css">
   <![CDATA[
    .fil0 {fill:#EC268F}
   ]]>
  </style>
 </defs>
 <g id="Layer_x0020_1">
  <metadata id="CorelCorpID_0Corel-Layer"/>
  <g id="_1955166379104">
   <path class="fil0" d="M1711 1621l469 0c61,0 121,16 166,35 94,39 164,112 210,202 117,234 -23,522 -277,583 -91,22 -213,-3 -251,18l-206 154c-20,15 -34,28 -55,39l0 -201c-160,0 -237,-10 -359,-130 -114,-113 -144,-315 -73,-458 70,-142 210,-242 376,-242zm-485 397c0,93 8,149 47,232 35,74 93,138 159,186 68,50 170,87 263,87l0 268c21,-5 46,-28 63,-41l184 -135c21,-16 38,-27 59,-44 17,-12 48,-40 66,-43 109,-18 240,35 420,-105 12,-10 16,-16 27,-25 18,-14 13,-8 28,-28l46 -57c42,-57 81,-161 81,-238l0 -67c0,-127 -78,-252 -143,-316 -78,-77 -208,-138 -321,-138l-520 0c-64,0 -137,23 -182,45 -152,72 -277,234 -277,419z"/>
   <path class="fil0" d="M2679 3203c0,59 -10,103 36,103l557 0c41,0 31,-83 31,-108 0,-74 -55,-141 -100,-174 -107,-80 -325,-81 -424,0 -50,41 -100,106 -100,179z"/>
   <path class="fil0" d="M613 3229c0,22 0,72 31,72l562 0c64,0 34,-155 2,-203 -20,-31 -40,-55 -68,-76 -60,-45 -148,-61 -219,-57 -95,5 -140,11 -215,68 -46,34 -93,115 -93,196z"/>
   <path class="fil0" d="M1633 1085c0,33 -8,98 26,98l572 0c35,0 54,-128 -26,-232 -76,-99 -182,-103 -293,-103 -150,0 -279,120 -279,237z"/>
   <path class="fil0" d="M577 2105c0,130 20,307 55,425 19,66 84,31 84,-2 0,-19 -56,-195 -56,-433 0,-279 85,-553 248,-757l85 -99c12,-13 20,-20 33,-30l65 -58c12,-10 22,-17 35,-27 62,-46 123,-89 195,-125 16,-7 26,-13 41,-21 64,-35 112,-37 112,-83 0,-25 -21,-41 -41,-41 -10,0 -77,33 -90,39l-247 150c-327,246 -519,599 -519,1062z"/>
   <path class="fil0" d="M2463 895c0,44 32,42 69,60 189,91 296,169 437,309 22,22 38,47 59,70 72,80 142,222 180,320 21,54 42,137 52,195 28,164 30,322 4,486 -9,63 -39,165 -39,198 0,17 60,80 88,-36 9,-36 16,-64 23,-106 64,-385 4,-797 -239,-1100 -9,-12 -17,-23 -27,-34 -60,-67 -94,-102 -163,-162l-148 -110c-35,-22 -230,-131 -255,-131 -20,0 -41,16 -41,41z"/>
   <path class="fil0" d="M1402 3332c0,45 39,50 104,75 269,106 654,103 923,-1 44,-17 116,-34 116,-69 0,-74 -69,-38 -90,-29 -535,217 -1005,-18 -1007,-18 -25,0 -46,15 -46,42z"/>
   <path class="fil0" d="M1783 622c0,40 22,90 40,114 89,112 274,48 274,-114 0,-84 -65,-170 -144,-170 -53,0 -92,10 -128,53 -20,23 -42,75 -42,117z"/>
   <path class="fil0" d="M2829 2739c0,84 65,170 144,170 52,0 93,-10 127,-53 107,-138 -8,-287 -101,-287 -55,0 -90,8 -128,53 -22,26 -42,70 -42,117z"/>
   <path class="fil0" d="M763 2739c0,80 69,170 144,170 55,0 90,-8 127,-53 99,-116 10,-287 -101,-287 -53,0 -92,11 -128,53 -20,24 -42,76 -42,117z"/>
   <path class="fil0" d="M2216 2131c115,0 97,-149 15,-149 -54,0 -86,28 -84,76 1,37 34,73 69,73z"/>
   <path class="fil0" d="M1644 2131c115,0 97,-149 15,-149 -124,0 -95,149 -15,149z"/>
   <path class="fil0" d="M1860 2054c0,102 150,106 150,-5 0,-84 -150,-96 -150,5z"/>
  </g>
 </g>
</svg>
