<?xml version="1.0" encoding="UTF-8"?>
<!DOCTYPE svg PUBLIC "-//W3C//DTD SVG 1.1//EN" "http://www.w3.org/Graphics/SVG/1.1/DTD/svg11.dtd">
<!-- Creator: CorelDRAW X7 -->
<svg xmlns="http://www.w3.org/2000/svg" xml:space="preserve" width="3.93701in" height="3.93701in" version="1.1" style="shape-rendering:geometricPrecision; text-rendering:geometricPrecision; image-rendering:optimizeQuality; fill-rule:evenodd; clip-rule:evenodd"
viewBox="0 0 3937 3937"
 xmlns:xlink="http://www.w3.org/1999/xlink">
 <defs>
  <style type="text/css">
   <![CDATA[
    .fil0 {fill:black}
   ]]>
  </style>
 </defs>
 <g id="Layer_x0020_1">
  <metadata id="CorelCorpID_0Corel-Layer"/>
  <g id="_1954985847696">
   <path class="fil0" d="M1955 1706l0 462c14,-3 27,-10 41,-15 70,-25 142,-55 213,-80 15,-5 28,-10 42,-16 36,-14 28,-24 28,-96 -61,0 -101,-37 -101,-97 0,-50 -9,-107 27,-141 7,-6 21,-15 30,-19 12,-4 28,-6 44,-6l0 -69c0,-16 -12,-28 -27,-30 -11,-2 -35,10 -44,13l-168 63c-15,5 -76,30 -85,31z"/>
   <path class="fil0" d="M1569 1629l0 69c62,0 102,37 102,97 0,60 11,132 -58,159 -12,5 -27,7 -44,7 0,65 -9,83 26,96l276 103c8,3 15,6 23,8l0 -462c-11,-1 -157,-58 -169,-62 -16,-6 -115,-46 -127,-45 -15,1 -29,13 -29,30z"/>
   <path class="fil0" d="M1752 1290c0,47 4,73 31,112 28,40 81,72 129,72 36,0 54,0 87,-16 52,-24 98,-86 98,-144 0,-47 -5,-73 -32,-112 -27,-39 -81,-72 -129,-72 -37,0 -52,0 -87,16 -51,23 -97,87 -97,144z"/>
   <path class="fil0" d="M1687 1566c8,4 20,7 30,11l207 77 206 -77c10,-4 23,-7 31,-11 -11,-17 -79,-59 -105,-67 -9,-3 -10,1 -28,11 -10,5 -18,8 -30,12 -63,22 -135,15 -191,-19 -13,-8 -17,-4 -44,9 -17,9 -67,41 -76,54z"/>
   <path class="fil0" d="M1488 1825c0,45 31,75 67,75l29 0c12,0 26,-14 26,-26l0 -89c0,-13 -14,-27 -26,-27l-29 0c-34,0 -67,33 -67,67z"/>
   <path class="fil0" d="M2238 1785l0 89c0,12 14,26 27,26l28 0c37,0 67,-30 67,-75 0,-34 -32,-67 -67,-67l-28 0c-13,0 -27,14 -27,27z"/>
  </g>
 </g>
</svg>
