<?xml version="1.0" encoding="UTF-8"?>
<!DOCTYPE svg PUBLIC "-//W3C//DTD SVG 1.1//EN" "http://www.w3.org/Graphics/SVG/1.1/DTD/svg11.dtd">
<!-- Creator: CorelDRAW X7 -->
<svg xmlns="http://www.w3.org/2000/svg" xml:space="preserve" width="3.93701in" height="3.93701in" version="1.1" style="shape-rendering:geometricPrecision; text-rendering:geometricPrecision; image-rendering:optimizeQuality; fill-rule:evenodd; clip-rule:evenodd"
viewBox="0 0 3937 3937"
 xmlns:xlink="http://www.w3.org/1999/xlink">
 <defs>
  <style type="text/css">
   <![CDATA[
    .fil0 {fill:black}
   ]]>
  </style>
 </defs>
 <g id="Layer_x0020_1">
  <metadata id="CorelCorpID_0Corel-Layer"/>
  <g id="_1955102423504">
   <path class="fil0" d="M2130 1635c0,75 15,131 65,182 31,31 85,71 144,71l0 5c-129,0 -256,95 -317,199 -38,67 -34,95 -48,124 29,0 85,10 111,18 97,28 173,93 226,176 37,56 58,135 60,204 2,70 -28,151 -59,209 30,20 53,42 77,69 10,11 23,28 31,39 10,14 18,32 32,43 20,-15 53,-92 140,-151 -61,-116 -75,-222 -30,-347 18,-50 51,-102 85,-135 57,-57 122,-82 122,-98 0,-39 -26,-109 -41,-137 -16,-29 -52,-79 -75,-101l-48 -39c-54,-38 -129,-73 -201,-73l0 -5c104,0 209,-118 209,-220 0,-78 -14,-129 -67,-186 -107,-116 -320,-94 -393,64 -11,22 -23,59 -23,89z"/>
   <path class="fil0" d="M1324 1635c0,75 15,131 65,182 31,31 85,71 144,71l0 5c-134,0 -259,99 -322,210 -15,26 -43,100 -43,140 0,27 145,58 206,229 26,74 31,109 25,185 -6,68 -28,118 -54,166 88,59 120,136 140,151l63 -82c24,-27 47,-49 77,-69 -56,-104 -76,-202 -41,-320 26,-90 94,-178 172,-225 61,-36 133,-61 207,-62 -27,-57 -14,-110 -125,-219 -46,-46 -151,-104 -240,-104l0 -5c59,0 113,-40 144,-71 69,-70 84,-178 44,-268 -33,-73 -116,-139 -199,-139 -82,0 -132,7 -194,69 -36,36 -69,100 -69,156z"/>
   <path class="fil0" d="M2694 2603c0,74 15,130 66,181 31,31 84,71 144,71l0 6c-57,0 -104,21 -145,38 -207,88 -310,445 -146,445l651 0c50,0 75,-33 80,-81l0 -39c-6,-75 -49,-171 -115,-243 -28,-29 -72,-61 -108,-79 -37,-19 -101,-41 -153,-41l0 -6c104,0 210,-117 210,-220 0,-77 -14,-129 -67,-186 -108,-116 -321,-94 -394,64 -10,23 -23,59 -23,90z"/>
   <path class="fil0" d="M759 2603c0,74 16,130 66,181 31,31 85,71 144,71l0 6c-56,0 -114,23 -151,43 -135,71 -225,216 -225,387 0,33 29,53 64,53l667 0c141,0 103,-306 -142,-443 -32,-18 -102,-40 -149,-40l0 -6c104,0 210,-117 210,-220 0,-77 -14,-129 -67,-186 -108,-116 -320,-94 -394,64 -10,23 -23,59 -23,90z"/>
   <path class="fil0" d="M1727 2603c0,74 15,130 65,181 31,31 85,71 144,71l0 6c-181,0 -371,178 -371,403 0,46 35,80 81,80l645 0c164,0 63,-351 -142,-443 -40,-18 -94,-40 -148,-40l0 -6c104,0 209,-117 209,-220 0,-50 0,-72 -21,-118 -33,-74 -115,-140 -199,-140 -81,0 -132,8 -194,70 -36,36 -69,100 -69,156z"/>
   <path class="fil0" d="M1727 824c0,64 27,91 91,91 34,0 49,-29 70,-43 0,40 -6,291 5,318 26,62 119,65 149,3 14,-28 7,-279 7,-321 40,27 24,43 91,43 44,0 70,-39 70,-91 0,-31 -27,-52 -44,-69 -33,-33 -146,-162 -187,-162 -65,0 -80,35 -149,103 -34,34 -103,92 -103,128z"/>
   <path class="fil0" d="M2533 824c0,64 27,91 91,91 34,0 49,-29 70,-43 0,40 -6,291 5,318 26,62 120,65 150,3 13,-28 6,-279 6,-321 40,27 24,43 92,43 43,0 70,-39 70,-91 0,-42 -127,-151 -160,-184 -27,-27 -48,-43 -70,-47l-25 0c-20,4 -41,18 -67,44 -33,33 -162,146 -162,187z"/>
   <path class="fil0" d="M920 824c0,64 28,91 92,91 34,0 49,-29 70,-43 0,40 -6,291 5,318 25,62 119,65 149,3 14,-28 7,-279 7,-321 40,27 23,43 91,43 44,0 70,-39 70,-91 0,-42 -126,-151 -160,-184 -26,-27 -48,-43 -69,-47l-25 0c-20,4 -41,18 -67,44 -33,33 -163,146 -163,187z"/>
  </g>
 </g>
</svg>
