<?xml version="1.0" encoding="UTF-8"?>
<!DOCTYPE svg PUBLIC "-//W3C//DTD SVG 1.1//EN" "http://www.w3.org/Graphics/SVG/1.1/DTD/svg11.dtd">
<!-- Creator: CorelDRAW X7 -->
<svg xmlns="http://www.w3.org/2000/svg" xml:space="preserve" width="3.93701in" height="3.93701in" version="1.1" style="shape-rendering:geometricPrecision; text-rendering:geometricPrecision; image-rendering:optimizeQuality; fill-rule:evenodd; clip-rule:evenodd"
viewBox="0 0 3937 3937"
 xmlns:xlink="http://www.w3.org/1999/xlink">
 <defs>
  <style type="text/css">
   <![CDATA[
    .fil0 {fill:#EC268F}
   ]]>
  </style>
 </defs>
 <g id="Layer_x0020_1">
  <metadata id="CorelCorpID_0Corel-Layer"/>
  <g id="_1955200058768">
   <path class="fil0" d="M276 1518c0,34 48,42 88,58 36,14 71,27 105,40l628 245c69,28 138,53 205,79l523 204c148,60 119,40 314,-32l1337 -521 0 734c-98,52 -98,179 0,231l-47 158c-28,102 -66,298 100,303 67,1 132,-49 132,-117l0 -4c-1,-93 -20,-184 -45,-268 -9,-28 -22,-47 -28,-72 34,-9 65,-47 73,-93l0 -44c-5,-27 -19,-56 -47,-81 -9,-8 -19,-8 -19,-26l0 -761c0,-45 87,-30 -150,-108l-1482 -521c-39,-7 -72,8 -108,20 -240,80 -501,181 -742,263l-797 281c-17,6 -39,8 -40,31l0 1z"/>
   <path class="fil0" d="M3086 1855c-89,21 -1087,437 -1144,437 -52,0 -361,-132 -435,-160 -45,-17 -94,-36 -143,-56l-572 -221c0,282 -48,537 120,706 27,27 43,42 73,66 236,194 580,270 951,292 104,6 381,-39 481,-67 146,-40 275,-89 392,-162 29,-19 55,-36 82,-57 260,-203 195,-424 195,-778z"/>
  </g>
 </g>
</svg>
