<?xml version="1.0" encoding="UTF-8"?>
<!DOCTYPE svg PUBLIC "-//W3C//DTD SVG 1.1//EN" "http://www.w3.org/Graphics/SVG/1.1/DTD/svg11.dtd">
<!-- Creator: CorelDRAW X7 -->
<svg xmlns="http://www.w3.org/2000/svg" xml:space="preserve" width="3.93701in" height="3.93701in" version="1.1" style="shape-rendering:geometricPrecision; text-rendering:geometricPrecision; image-rendering:optimizeQuality; fill-rule:evenodd; clip-rule:evenodd"
viewBox="0 0 3937 3937"
 xmlns:xlink="http://www.w3.org/1999/xlink">
 <defs>
  <style type="text/css">
   <![CDATA[
    .str0 {stroke:#FEFEFE;stroke-width:111.11}
    .fil0 {fill:none}
   ]]>
  </style>
 </defs>
 <g id="Layer_x0020_1">
  <metadata id="CorelCorpID_0Corel-Layer"/>
  <g id="_1990580102400">
   <path class="fil0 str0" d="M2571 987c0,50 36,88 75,103l163 16 0 2370c0,123 82,211 192,211 146,0 257,23 343,-54 23,-21 55,-82 55,-124l0 -2410c88,0 238,21 238,-112 0,-48 -43,-95 -76,-137l-157 -200c-80,-101 -188,-286 -290,-286 -96,0 -127,57 -178,120 -43,55 -86,108 -127,164 -37,49 -238,280 -238,339z"/>
   <path class="fil0 str0" d="M1949 1682l0 1774c0,133 76,231 185,231l212 0c103,0 192,-88 192,-191l0 -1861c0,-85 -89,-178 -172,-178l-232 0c-116,0 -185,99 -185,225z"/>
   <path class="fil0 str0" d="M1108 2138l0 1377c0,84 94,172 179,172l225 0c84,0 179,-82 179,-185l0 -1364c0,-81 -91,-172 -172,-172l-239 0c-82,0 -172,91 -172,172z"/>
   <path class="fil0 str0" d="M248 2615l0 874c0,78 54,149 114,177 76,35 172,21 276,21 89,0 192,-95 192,-185l0 -900c0,-90 -103,-186 -192,-186 -144,0 -245,-23 -329,62 -33,33 -61,74 -61,137z"/>
  </g>
 </g>
</svg>
