<?xml version="1.0" encoding="UTF-8"?>
<!DOCTYPE svg PUBLIC "-//W3C//DTD SVG 1.1//EN" "http://www.w3.org/Graphics/SVG/1.1/DTD/svg11.dtd">
<!-- Creator: CorelDRAW X7 -->
<svg xmlns="http://www.w3.org/2000/svg" xml:space="preserve" width="3.93701in" height="3.93701in" version="1.1" style="shape-rendering:geometricPrecision; text-rendering:geometricPrecision; image-rendering:optimizeQuality; fill-rule:evenodd; clip-rule:evenodd"
viewBox="0 0 3937 3937"
 xmlns:xlink="http://www.w3.org/1999/xlink">
 <defs>
  <style type="text/css">
   <![CDATA[
    .fil0 {fill:none}
    .fil1 {fill:black}
   ]]>
  </style>
 </defs>
 <g id="Layer_x0020_1">
  <metadata id="CorelCorpID_0Corel-Layer"/>
  <rect class="fil0" width="3937" height="3937"/>
  <g id="_1955109743840">
   <path class="fil1" d="M1857 1707c0,27 6,48 24,67 12,11 31,26 53,26l0 2c-47,0 -94,34 -116,73 -14,24 -13,34 -18,45 11,0 31,4 41,6 36,11 63,35 83,65 13,20 21,49 22,74 1,26 -10,56 -22,77 11,7 20,15 28,25 4,4 9,10 12,14 3,6 6,12 11,16 8,-5 20,-33 52,-55 -23,-42 -28,-81 -12,-127 7,-18 19,-37 32,-50 21,-20 45,-29 45,-35 0,-15 -10,-40 -16,-50 -5,-11 -19,-30 -27,-38l-18 -14c-20,-14 -47,-26 -73,-26l0 -2c38,0 76,-43 76,-81 0,-28 -5,-47 -24,-68 -40,-42 -117,-34 -144,23 -4,9 -9,22 -9,33z"/>
   <path class="fil1" d="M1562 1707c0,27 6,48 24,67 11,11 31,26 53,26l0 2c-49,0 -95,36 -118,76 -6,10 -16,37 -16,52 0,10 53,21 76,83 9,28 11,41 9,68 -2,25 -11,43 -20,61 32,22 44,50 51,55l23 -30c9,-10 18,-18 28,-25 -20,-38 -27,-74 -15,-117 10,-33 35,-65 64,-83 22,-13 48,-22 75,-22 -10,-21 -5,-40 -45,-81 -17,-16 -56,-37 -89,-37l0 -2c22,0 42,-15 53,-26 25,-26 31,-65 16,-98 -12,-27 -42,-51 -72,-51 -30,0 -49,2 -71,25 -14,13 -26,37 -26,57z"/>
   <path class="fil1" d="M2064 2061c0,28 6,48 24,67 11,11 31,26 53,26l0 2c-21,0 -38,8 -53,14 -76,32 -114,163 -54,163l239 0c18,0 27,-12 29,-30l0 -14c-2,-28 -18,-63 -42,-89 -10,-11 -27,-22 -40,-29 -13,-7 -37,-15 -56,-15l0 -2c38,0 77,-43 77,-81 0,-28 -5,-47 -24,-68 -40,-42 -118,-34 -145,24 -3,8 -8,21 -8,32z"/>
   <path class="fil1" d="M1355 2061c0,28 6,48 25,67 11,11 31,26 52,26l0 2c-20,0 -42,9 -55,16 -49,26 -83,79 -83,141 0,13 11,20 24,20l244 0c52,0 38,-112 -52,-163 -11,-6 -37,-14 -54,-14l0 -2c38,0 77,-43 77,-81 0,-28 -6,-47 -25,-68 -39,-42 -117,-34 -144,24 -4,8 -9,21 -9,32z"/>
   <path class="fil1" d="M1710 2061c0,28 5,48 24,67 11,11 31,26 52,26l0 2c-66,0 -135,65 -135,147 0,17 12,30 29,30l236 0c60,0 24,-129 -52,-163 -14,-6 -34,-14 -54,-14l0 -2c38,0 77,-43 77,-81 0,-18 0,-26 -8,-43 -12,-27 -42,-51 -73,-51 -30,0 -48,3 -71,25 -13,14 -25,37 -25,57z"/>
   <path class="fil1" d="M1710 1410c0,23 10,33 33,33 13,0 18,-10 26,-15 0,14 -2,106 2,116 9,23 43,24 54,1 5,-10 3,-102 3,-117 14,9 8,15 33,15 16,0 26,-14 26,-33 0,-11 -10,-19 -16,-25 -13,-12 -54,-60 -69,-60 -24,0 -29,13 -54,38 -13,13 -38,34 -38,47z"/>
   <path class="fil1" d="M2005 1410c0,23 10,33 33,33 13,0 18,-10 26,-15 0,14 -2,106 2,116 9,23 44,24 55,1 5,-10 2,-102 2,-117 15,9 9,15 33,15 16,0 26,-14 26,-33 0,-15 -46,-55 -58,-67 -10,-10 -18,-16 -26,-18l-9 0c-7,2 -15,7 -25,17 -12,12 -59,53 -59,68z"/>
   <path class="fil1" d="M1415 1410c0,23 10,33 33,33 12,0 18,-10 26,-15 0,14 -3,106 1,116 10,23 44,24 55,1 5,-10 3,-102 3,-117 14,9 8,15 33,15 16,0 26,-14 26,-33 0,-15 -47,-55 -59,-67 -10,-10 -18,-16 -25,-18l-10 0c-7,2 -15,7 -24,17 -12,12 -59,53 -59,68z"/>
  </g>
 </g>
</svg>
