<?xml version="1.0" encoding="UTF-8"?>
<!DOCTYPE svg PUBLIC "-//W3C//DTD SVG 1.1//EN" "http://www.w3.org/Graphics/SVG/1.1/DTD/svg11.dtd">
<!-- Creator: CorelDRAW X7 -->
<svg xmlns="http://www.w3.org/2000/svg" xml:space="preserve" width="3.93701in" height="3.93701in" version="1.1" style="shape-rendering:geometricPrecision; text-rendering:geometricPrecision; image-rendering:optimizeQuality; fill-rule:evenodd; clip-rule:evenodd"
viewBox="0 0 3937 3937"
 xmlns:xlink="http://www.w3.org/1999/xlink">
 <defs>
  <style type="text/css">
   <![CDATA[
    .fil0 {fill:black}
   ]]>
  </style>
 </defs>
 <g id="Layer_x0020_1">
  <metadata id="CorelCorpID_0Corel-Layer"/>
  <g id="_1955187019680">
   <path class="fil0" d="M1355 2291l22 0c0,94 67,272 116,352 38,64 96,149 148,201 64,64 93,32 6,266 -11,28 -66,162 -66,182 0,30 24,54 54,54l780 0c25,0 48,-22 58,-39 27,-41 34,-98 46,-147l18 -53c11,-21 2,-9 11,-11 140,-25 496,109 597,-150 29,-73 12,-258 12,-364 0,-37 146,-75 146,-162 0,-71 -73,-194 -101,-265 -28,-70 -9,-59 7,-130 33,-147 -10,-288 -91,-409 -24,-37 -48,-65 -78,-95 -24,-25 -3,-11 -42,-44 -10,-7 -13,-13 -22,-21 -121,-117 -343,-214 -505,-243 -186,-34 -413,6 -578,94 -23,-49 -24,-150 -149,-260 -380,-336 -968,105 -703,584 8,14 19,31 28,43 6,7 9,9 16,16 9,10 9,12 16,21 12,14 23,19 38,33 45,43 91,50 105,104 11,38 4,217 4,271 0,54 -6,87 18,122 17,25 49,50 89,50zm721 -807c0,123 94,43 215,43 208,0 253,36 397,115 42,23 88,17 88,-50 0,-26 -15,-33 -32,-44 -16,-11 -28,-20 -46,-30 -36,-19 -68,-35 -105,-50 -90,-36 -175,-54 -286,-54 -62,0 -231,20 -231,70zm694 199c0,28 25,54 59,54 47,0 69,-61 35,-94 -35,-35 -94,-10 -94,40zm-1173 -317c0,100 -21,66 -21,124 0,34 26,48 59,48 68,0 112,-198 31,-294 -124,-146 -189,-24 -143,24 6,6 19,12 26,17 10,7 14,11 23,20 15,16 25,32 25,61z"/>
   <path class="fil0" d="M1382 645c0,86 -21,220 63,208 65,-10 50,-109 50,-181 0,-52 -23,-76 -48,-81l-19 0c-24,5 -46,25 -46,54z"/>
   <path class="fil0" d="M634 1382c0,35 6,70 65,70l129 0c88,0 91,-113 0,-113 -50,0 -194,-17 -194,43z"/>
   <path class="fil0" d="M1194 887c0,-41 -47,-101 -70,-145 -49,-92 -112,-40 -117,-4 -3,28 52,114 69,143 14,22 24,48 55,53 26,3 63,-21 63,-47z"/>
   <path class="fil0" d="M731 1022c0,39 56,61 84,77 27,16 74,52 110,52 34,0 48,-27 48,-59 0,-39 -49,-57 -77,-73 -51,-30 -73,-51 -116,-51 -29,0 -49,30 -49,54z"/>
   <path class="fil0" d="M731 1764c0,49 32,59 65,59 20,0 79,-40 99,-51 57,-34 78,-33 78,-83 0,-48 -43,-62 -104,-29 -27,15 -138,66 -138,104z"/>
   <path class="fil0" d="M1899 1092c0,35 21,59 59,59 23,0 82,-40 104,-52 44,-24 79,-38 79,-83 0,-34 -27,-48 -60,-48 -22,0 -79,38 -100,50 -25,14 -82,41 -82,74z"/>
   <path class="fil0" d="M1683 871c0,56 60,103 112,15 19,-31 71,-111 71,-144 0,-35 -26,-49 -59,-49 -39,0 -56,50 -73,78 -11,19 -51,80 -51,100z"/>
   <path class="fil0" d="M1005 2044c0,45 69,89 109,23 14,-23 24,-44 37,-66 10,-17 32,-45 32,-70 0,-27 -25,-54 -59,-54 -39,0 -53,44 -69,71 -10,17 -50,77 -50,96z"/>
  </g>
 </g>
</svg>
