<?xml version="1.0" encoding="UTF-8"?>
<!DOCTYPE svg PUBLIC "-//W3C//DTD SVG 1.1//EN" "http://www.w3.org/Graphics/SVG/1.1/DTD/svg11.dtd">
<!-- Creator: CorelDRAW X7 -->
<svg xmlns="http://www.w3.org/2000/svg" xml:space="preserve" width="3.93701in" height="3.93701in" version="1.1" style="shape-rendering:geometricPrecision; text-rendering:geometricPrecision; image-rendering:optimizeQuality; fill-rule:evenodd; clip-rule:evenodd"
viewBox="0 0 3937 3937"
 xmlns:xlink="http://www.w3.org/1999/xlink">
 <defs>
  <style type="text/css">
   <![CDATA[
    .fil0 {fill:#FEFEFE}
   ]]>
  </style>
 </defs>
 <g id="Layer_x0020_1">
  <metadata id="CorelCorpID_0Corel-Layer"/>
  <g id="_1955184448384">
   <path class="fil0" d="M1521 2204l15 0c0,69 50,199 85,257 28,46 71,109 109,147 46,46 67,23 3,194 -7,21 -47,118 -47,133 0,22 17,39 39,39l570 0c18,0 34,-16 42,-28 20,-30 25,-72 34,-108l12 -38c8,-15 2,-7 9,-8 102,-19 362,79 436,-109 21,-54 9,-189 9,-267 0,-26 106,-54 106,-118 0,-52 -53,-142 -74,-193 -21,-52 -6,-44 5,-95 24,-108 -7,-210 -66,-299 -18,-27 -35,-48 -57,-69 -18,-19 -2,-9 -31,-32 -7,-6 -10,-10 -16,-16 -88,-85 -250,-156 -368,-177 -137,-25 -302,5 -422,68 -18,-36 -19,-109 -110,-189 -277,-246 -706,77 -512,426 5,10 13,23 20,31 4,6 6,7 11,12 7,8 7,9 12,16 8,9 17,14 28,23 32,32 67,37 77,76 7,28 2,159 2,199 0,39 -4,63 13,88 13,19 36,37 66,37zm526 -589c0,90 69,31 157,31 152,0 185,26 290,84 30,17 64,13 64,-36 0,-20 -11,-25 -23,-33 -12,-8 -20,-14 -34,-21 -26,-14 -49,-26 -77,-37 -66,-26 -127,-39 -208,-39 -46,0 -169,14 -169,51zm507 145c0,20 18,40 43,40 34,0 50,-45 26,-69 -26,-26 -69,-7 -69,29zm-857 -231c0,72 -15,48 -15,90 0,25 19,35 43,35 49,0 82,-145 22,-215 -90,-106 -137,-17 -103,18 4,4 13,9 18,13 7,4 10,7 17,14 11,12 18,23 18,45z"/>
   <path class="fil0" d="M1540 1002c0,63 -15,161 46,152 48,-7 37,-79 37,-132 0,-38 -17,-56 -35,-59l-14 0c-18,3 -34,18 -34,39z"/>
   <path class="fil0" d="M994 1540c0,26 4,51 47,51l95 0c64,0 66,-82 0,-82 -37,0 -142,-13 -142,31z"/>
   <path class="fil0" d="M1403 1179c0,-30 -34,-74 -51,-106 -36,-67 -82,-29 -85,-3 -3,21 37,83 50,104 10,16 17,35 40,39 19,3 46,-15 46,-34z"/>
   <path class="fil0" d="M1065 1277c0,29 41,45 61,57 20,11 54,37 80,37 26,0 36,-19 36,-43 0,-28 -36,-41 -57,-53 -37,-22 -53,-37 -85,-37 -20,0 -35,22 -35,39z"/>
   <path class="fil0" d="M1065 1819c0,36 23,43 47,43 15,0 58,-29 72,-37 42,-25 58,-24 58,-61 0,-35 -32,-45 -76,-21 -20,11 -101,49 -101,76z"/>
   <path class="fil0" d="M1917 1328c0,26 16,43 44,43 16,0 60,-29 76,-38 32,-17 57,-27 57,-60 0,-25 -19,-35 -43,-35 -16,0 -58,28 -73,36 -19,11 -61,31 -61,54z"/>
   <path class="fil0" d="M1760 1167c0,41 44,75 82,11 14,-23 52,-81 52,-105 0,-25 -19,-36 -43,-36 -29,0 -41,36 -54,57 -8,14 -37,58 -37,73z"/>
   <path class="fil0" d="M1265 2024c0,32 50,65 80,16 10,-16 17,-32 27,-48 7,-12 23,-32 23,-51 0,-20 -18,-39 -43,-39 -28,0 -39,32 -51,52 -7,12 -36,56 -36,70z"/>
  </g>
 </g>
</svg>
