<?xml version="1.0" encoding="UTF-8"?>
<!DOCTYPE svg PUBLIC "-//W3C//DTD SVG 1.1//EN" "http://www.w3.org/Graphics/SVG/1.1/DTD/svg11.dtd">
<!-- Creator: CorelDRAW X7 -->
<svg xmlns="http://www.w3.org/2000/svg" xml:space="preserve" width="3.93701in" height="3.93701in" version="1.1" style="shape-rendering:geometricPrecision; text-rendering:geometricPrecision; image-rendering:optimizeQuality; fill-rule:evenodd; clip-rule:evenodd"
viewBox="0 0 3937 3937"
 xmlns:xlink="http://www.w3.org/1999/xlink">
 <defs>
  <style type="text/css">
   <![CDATA[
    .fil0 {fill:none}
    .fil1 {fill:black}
   ]]>
  </style>
 </defs>
 <g id="Layer_x0020_1">
  <metadata id="CorelCorpID_0Corel-Layer"/>
  <rect class="fil0" width="3937" height="3937"/>
  <g id="_1955188177952">
   <path class="fil1" d="M1678 2114l8 0c0,34 24,98 42,127 13,23 34,54 53,72 23,23 33,12 2,96 -4,10 -24,59 -24,66 0,11 9,19 20,19l281 0c9,0 17,-8 21,-14 9,-15 12,-35 16,-53l7 -19c4,-7 0,-3 4,-4 50,-9 178,39 215,-54 10,-26 4,-93 4,-131 0,-13 53,-27 53,-58 0,-26 -26,-70 -37,-96 -10,-25 -3,-21 3,-47 12,-53 -4,-103 -33,-147 -9,-13 -17,-24 -28,-34 -9,-9 -1,-4 -15,-16 -4,-3 -5,-5 -8,-8 -44,-42 -124,-77 -182,-87 -67,-12 -149,2 -208,33 -9,-17 -9,-53 -54,-93 -137,-121 -349,38 -253,210 3,5 7,12 10,16 2,2 3,3 6,6 3,3 3,4 6,7 4,5 8,7 13,12 16,15 33,18 38,37 4,14 1,79 1,98 0,19 -2,32 7,44 6,9 18,18 32,18zm260 -291c0,45 33,16 77,16 75,0 91,13 143,41 15,9 32,6 32,-18 0,-9 -5,-12 -12,-16 -6,-4 -10,-7 -16,-10 -13,-7 -25,-13 -38,-18 -33,-13 -63,-20 -103,-20 -22,0 -83,7 -83,25zm250 72c0,10 9,20 21,20 17,0 25,-22 13,-34 -13,-13 -34,-4 -34,14zm-423 -114c0,36 -8,23 -8,44 0,13 10,18 22,18 24,0 40,-72 11,-106 -45,-53 -68,-9 -51,8 2,3 6,5 9,7 3,2 5,4 8,7 6,6 9,11 9,22z"/>
   <path class="fil1" d="M1688 1521c0,31 -8,79 22,75 24,-4 18,-39 18,-65 0,-19 -8,-28 -17,-29l-7 0c-9,1 -16,9 -16,19z"/>
   <path class="fil1" d="M1418 1787c0,12 2,25 23,25l47 0c32,0 33,-41 0,-41 -18,0 -70,-6 -70,16z"/>
   <path class="fil1" d="M1620 1608c0,-15 -17,-36 -25,-52 -18,-33 -41,-14 -42,-1 -2,10 18,40 25,51 4,8 8,17 19,19 10,1 23,-8 23,-17z"/>
   <path class="fil1" d="M1453 1657c0,14 20,22 30,28 10,5 27,18 40,18 12,0 17,-9 17,-21 0,-14 -17,-20 -28,-26 -18,-11 -26,-19 -41,-19 -11,0 -18,11 -18,20z"/>
   <path class="fil1" d="M1453 1924c0,18 12,22 23,22 8,0 29,-15 36,-19 21,-12 28,-12 28,-30 0,-17 -15,-22 -37,-10 -10,5 -50,24 -50,37z"/>
   <path class="fil1" d="M1874 1682c0,13 8,21 21,21 8,0 30,-14 38,-18 15,-9 28,-14 28,-30 0,-13 -10,-18 -21,-18 -9,0 -29,14 -37,18 -9,5 -29,15 -29,27z"/>
   <path class="fil1" d="M1796 1602c0,21 22,37 41,6 6,-11 25,-40 25,-52 0,-12 -9,-18 -21,-18 -14,0 -20,18 -27,28 -4,7 -18,29 -18,36z"/>
   <path class="fil1" d="M1552 2025c0,16 25,32 39,8 5,-8 9,-15 13,-23 4,-7 12,-17 12,-26 0,-10 -9,-19 -21,-19 -14,0 -19,16 -25,25 -4,7 -18,28 -18,35z"/>
  </g>
 </g>
</svg>
