<?xml version="1.0" encoding="UTF-8"?>
<!DOCTYPE svg PUBLIC "-//W3C//DTD SVG 1.1//EN" "http://www.w3.org/Graphics/SVG/1.1/DTD/svg11.dtd">
<!-- Creator: CorelDRAW X7 -->
<svg xmlns="http://www.w3.org/2000/svg" xml:space="preserve" width="3.93701in" height="3.93701in" version="1.1" style="shape-rendering:geometricPrecision; text-rendering:geometricPrecision; image-rendering:optimizeQuality; fill-rule:evenodd; clip-rule:evenodd"
viewBox="0 0 3937 3937"
 xmlns:xlink="http://www.w3.org/1999/xlink">
 <defs>
  <style type="text/css">
   <![CDATA[
    .fil0 {fill:#FEFEFE}
   ]]>
  </style>
 </defs>
 <g id="Layer_x0020_1">
  <metadata id="CorelCorpID_0Corel-Layer"/>
  <g id="_1955166345408">
   <path class="fil0" d="M1448 1328l167 169c104,-71 139,-108 278,-156 278,-96 605,-45 836,140 60,47 60,50 113,103 18,18 30,37 47,57 81,99 145,245 169,373 23,123 20,264 -9,383 -15,58 -33,113 -56,160 -12,23 -22,46 -36,69 -15,25 -28,45 -43,67 -124,188 -373,345 -600,372 -216,27 -432,-14 -605,-128 -37,-24 -92,-63 -123,-93 -162,-161 -263,-327 -289,-572 -19,-180 26,-379 110,-524 35,-61 55,-81 89,-131l-167 -170c-15,11 -43,52 -55,68l-49 72c-95,144 -170,368 -170,555 0,203 24,352 103,516 55,115 161,276 260,355 39,31 46,44 112,92 159,115 396,208 612,208 198,0 360,-24 520,-105 74,-38 147,-77 212,-130l74 -62c98,-76 206,-247 258,-351 66,-130 101,-275 107,-422l0 -99c-9,-220 -81,-438 -208,-614 -41,-57 -66,-79 -91,-113l-69 -68c-114,-91 -118,-110 -287,-191 -164,-79 -313,-103 -516,-103 -191,0 -444,85 -590,192 -24,18 -91,63 -104,81z"/>
   <path class="fil0" d="M1732 1611l167 170c181,-122 387,-122 569,-2 139,92 210,251 210,421 0,105 -38,189 -90,268 -9,14 -13,19 -25,32 -47,53 -99,103 -168,131 -168,70 -339,66 -492,-41 -12,-8 -22,-15 -33,-24 -7,-7 -9,-9 -16,-15 -50,-40 -86,-97 -115,-154 -82,-163 -58,-349 40,-497l-166 -169c-5,14 -66,91 -103,183 -108,272 -44,579 160,783 114,114 303,212 477,212 135,0 230,-9 347,-69 79,-40 143,-82 203,-143 59,-58 102,-122 142,-200 135,-269 73,-612 -142,-827 -58,-58 -122,-102 -200,-141 -207,-104 -480,-92 -678,28l-87 54z"/>
   <path class="fil0" d="M2021 1895c-118,118 -116,106 -142,163 -37,80 -33,184 5,263 164,331 631,202 631,-137 0,-210 -206,-379 -418,-318 -41,11 -56,24 -76,29z"/>
   <path class="fil0" d="M1002 881c-62,-42 -186,-210 -236,-210 -68,0 -95,27 -95,95 0,51 168,173 210,236 -54,0 -109,-1 -163,0 -61,0 -90,36 -94,74l0 19c3,26 16,50 37,64 55,35 327,6 388,17 22,4 147,136 158,152l122 -120c-12,-8 -148,-138 -152,-155 -13,-47 18,-336 -18,-392 -14,-22 -37,-34 -61,-37l-22 0c-38,4 -73,33 -74,89 -1,55 0,113 0,168z"/>
  </g>
 </g>
</svg>
