<?xml version="1.0" encoding="UTF-8"?>
<!DOCTYPE svg PUBLIC "-//W3C//DTD SVG 1.1//EN" "http://www.w3.org/Graphics/SVG/1.1/DTD/svg11.dtd">
<!-- Creator: CorelDRAW X7 -->
<svg xmlns="http://www.w3.org/2000/svg" xml:space="preserve" width="3.93701in" height="3.93701in" version="1.1" style="shape-rendering:geometricPrecision; text-rendering:geometricPrecision; image-rendering:optimizeQuality; fill-rule:evenodd; clip-rule:evenodd"
viewBox="0 0 3937 3937"
 xmlns:xlink="http://www.w3.org/1999/xlink">
 <defs>
  <style type="text/css">
   <![CDATA[
    .fil0 {fill:none}
    .fil1 {fill:#EC268F}
   ]]>
  </style>
 </defs>
 <g id="Layer_x0020_1">
  <metadata id="CorelCorpID_0Corel-Layer"/>
  <rect class="fil0" width="3937" height="3937"/>
  <path class="fil1" d="M1657 2481l1 1c20,21 21,17 66,-15l402 -287c17,17 36,28 53,42 73,62 184,144 264,208 18,14 34,27 52,41 24,19 37,34 57,14 11,-11 6,-25 1,-37l-39 -116c-18,-52 -35,-103 -52,-155 -17,-53 -36,-103 -53,-155l-234 -697c-8,-24 -16,-62 -30,-80l-6 -5c-9,-7 -19,-6 -33,7 -5,6 -52,140 -58,154l-158 424c-2,7 -4,12 -6,18 -3,8 -5,12 -8,21l-143 385c-5,14 -10,26 -14,39l-57 155c-3,6 -6,11 -8,18 -1,6 -2,16 3,20z"/>
 </g>
</svg>
