<?xml version="1.0" encoding="UTF-8"?>
<!DOCTYPE svg PUBLIC "-//W3C//DTD SVG 1.1//EN" "http://www.w3.org/Graphics/SVG/1.1/DTD/svg11.dtd">
<!-- Creator: CorelDRAW X7 -->
<svg xmlns="http://www.w3.org/2000/svg" xml:space="preserve" width="3.93701in" height="3.93701in" version="1.1" style="shape-rendering:geometricPrecision; text-rendering:geometricPrecision; image-rendering:optimizeQuality; fill-rule:evenodd; clip-rule:evenodd"
viewBox="0 0 3937 3937"
 xmlns:xlink="http://www.w3.org/1999/xlink">
 <defs>
  <style type="text/css">
   <![CDATA[
    .fil0 {fill:black}
   ]]>
  </style>
 </defs>
 <g id="Layer_x0020_1">
  <metadata id="CorelCorpID_0Corel-Layer"/>
  <path class="fil0" d="M1045 3277l2 2c46,45 49,38 149,-34l898 -642c38,38 79,63 117,95 164,138 411,321 590,463 40,31 76,60 117,92 54,42 82,76 128,31 24,-25 11,-56 2,-83l-89 -259c-38,-116 -76,-229 -115,-346 -39,-117 -79,-230 -118,-346l-524 -1557c-17,-52 -35,-137 -67,-177l-13 -13c-19,-15 -43,-13 -73,17 -12,12 -117,311 -130,342l-352 948c-6,15 -9,28 -14,41 -7,17 -12,28 -18,45l-320 862c-10,30 -21,57 -31,86l-128 346c-5,14 -12,26 -16,41 -3,14 -6,35 5,46z"/>
 </g>
</svg>
