<?xml version="1.0" encoding="UTF-8"?>
<!DOCTYPE svg PUBLIC "-//W3C//DTD SVG 1.1//EN" "http://www.w3.org/Graphics/SVG/1.1/DTD/svg11.dtd">
<!-- Creator: CorelDRAW X7 -->
<svg xmlns="http://www.w3.org/2000/svg" xml:space="preserve" width="3.93701in" height="3.93701in" version="1.1" style="shape-rendering:geometricPrecision; text-rendering:geometricPrecision; image-rendering:optimizeQuality; fill-rule:evenodd; clip-rule:evenodd"
viewBox="0 0 3937 3937"
 xmlns:xlink="http://www.w3.org/1999/xlink">
 <defs>
  <style type="text/css">
   <![CDATA[
    .fil0 {fill:white}
   ]]>
  </style>
 </defs>
 <g id="Layer_x0020_1">
  <metadata id="CorelCorpID_0Corel-Layer"/>
  <g id="_1955158172704">
   <path class="fil0" d="M3075 3126c-6,0 -14,2 -14,-5l0 -138c0,-6 5,-6 8,-5 7,0 8,-1 12,3 3,2 3,4 7,7 5,3 7,2 7,9l0 106c0,15 -8,23 -20,23zm143 -149c9,-3 23,-4 35,-2l6 8c5,10 9,-1 10,21 9,1 13,1 14,22 1,12 0,26 0,38l0 56c0,7 -2,6 -3,16 -9,6 -22,7 -33,0l0 -11 -1 -2 -13 0c-7,-13 -5,-73 -4,-95 0,-2 0,-6 0,-8 -1,-3 0,1 -1,-2 -2,-8 -13,-5 -27,-5 -10,0 -20,0 -29,0 -7,5 -5,19 -5,33 0,12 1,67 -2,74 -2,6 -28,8 -31,5 -2,-2 -2,-92 -1,-100 0,-6 2,-9 1,-16 -1,-3 -1,-3 -2,-8l1 -5c0,0 0,-1 0,-1 3,-10 1,-1 15,-13 10,-8 57,-5 70,-5zm176 78c2,8 6,6 10,11 2,3 2,4 3,7 3,5 9,10 12,14 1,1 1,1 2,2 11,17 9,9 14,16 6,8 -1,6 10,12 3,2 3,2 5,4l12 0c1,6 3,9 3,14 -1,8 -10,6 -23,6 -14,0 -10,-2 -20,-4l0 -11 -3 -1c-8,-3 -5,-2 -13,-8 -4,-4 -3,-4 -6,-7l-14 -14c-9,-15 -8,-7 -12,-15 -2,-3 -2,-5 -5,-9 -10,0 -13,2 -16,17 -2,12 1,26 -2,35 -7,5 -12,1 -14,6 -3,8 3,8 -11,10 -8,2 -14,1 -18,-5 -4,-10 1,-4 -7,-10 -2,-46 0,-96 0,-142 0,-16 -3,-59 2,-69 7,-13 28,-12 34,-8 5,4 2,2 4,5 7,11 12,-5 12,28l-1 61c0,9 1,19 13,17 5,0 4,0 5,-4 1,-4 -2,-7 9,-12 12,-6 0,2 9,-11l13 0c0,-16 -2,-14 34,-15 10,0 20,-2 17,18 -1,7 -4,7 -11,8 -3,17 -11,10 -15,17 -6,10 2,5 -12,11 -6,2 -3,1 -5,6 -4,10 -5,3 -14,9l-1 11zm-330 -103c0,-5 -5,-14 0,-25 2,-4 5,-5 10,-6 5,-1 8,0 11,3l8 7c6,7 0,13 -5,19 -9,8 -12,3 -24,2zm247 -810c2,-4 2,-5 2,-12 12,-7 2,-5 29,-5 42,-1 34,7 39,11 3,4 7,2 12,4 4,3 4,7 7,11l10 6c0,6 -1,10 -3,14 0,5 -1,6 1,10l12 0c3,4 7,6 5,23 -3,19 -10,15 -15,15 0,7 -2,6 -1,14 2,10 6,20 -12,21l-6 18c-3,8 -12,-6 -13,16l-8 1c-7,2 -6,10 -7,15l-11 1c-1,8 -3,0 -3,12 -9,1 -15,4 -18,11 -1,4 0,4 -3,6 -5,3 -9,2 -13,6l-8 11 -18 0c-5,11 -5,15 -18,14l-8 0c-4,1 -2,5 -4,10 0,0 0,1 0,1 0,0 0,1 -1,1 -2,4 -6,3 -10,6l-2 2c-3,4 -1,5 -4,8 0,4 1,0 -1,1 -1,0 -1,0 -1,0 -12,5 -18,0 -24,5 -10,8 3,9 -26,10 -1,3 -3,10 -5,12 -4,4 -3,0 -9,3 -7,4 -3,10 -11,12 -8,2 -9,-1 -10,9 9,4 14,1 18,10 5,9 -2,2 8,7 7,4 3,3 7,8 4,6 2,3 10,5 23,5 2,14 29,15 3,4 4,4 5,12l11 0c1,5 2,8 2,15 20,8 5,12 22,19 11,4 6,5 11,9 6,4 11,0 16,4 3,3 3,3 4,6 4,6 1,3 6,5 15,8 4,10 15,15 13,6 6,1 13,12 1,3 1,2 2,4 7,0 14,-2 18,4 2,4 -1,-1 1,3 4,7 7,4 13,8 4,2 4,5 6,10 0,0 9,2 12,5 6,4 1,5 8,11 3,4 0,0 4,5 9,10 12,10 16,17 4,6 1,2 5,5 4,2 2,0 5,4 2,2 3,5 4,6 5,11 13,2 15,23 8,0 6,1 11,5 0,7 -1,14 2,18 3,5 0,1 5,3 4,2 4,1 7,3l1 27c25,1 14,19 16,66 1,14 0,14 -5,23 -9,0 -11,-2 -12,6 -1,7 1,11 -4,13 -5,3 -10,0 -15,2 -10,4 5,16 -42,16 -11,0 -26,1 -35,-3 -3,-6 -2,-6 -2,-15 -15,0 -18,-8 -25,-11 -12,-5 -10,0 -19,-10 -7,-7 -15,-7 -19,-10 -6,-4 0,-5 -11,-10 -7,-3 -6,-2 -10,-8 -5,-6 -6,-4 -12,-9l-10 -9c-3,-3 -7,-6 -10,-9 -4,-3 -6,-7 -9,-9 -2,-2 -4,-3 -6,-5l-22 -27c-5,-5 -6,-5 -10,-9 -3,-4 -4,-9 -8,-12 -6,-6 -5,0 -9,-10 -3,-8 -3,-6 -8,-11 -6,-5 -1,-6 -17,-23 -4,-4 -4,-7 -7,-11 -5,-6 -6,-1 -10,-10 -2,-5 1,-2 -3,-6 -6,-8 -5,0 -10,-11 -1,-3 -1,-4 -3,-6 -3,-4 -6,-6 -9,-10 -3,-4 -6,-9 -8,-12 -7,-7 -3,1 -11,-13 -2,-3 -1,-1 -3,-3 -2,-2 -4,-2 -6,-4 -6,-5 -4,-7 -8,-11 -5,-6 -6,0 -10,-10 -6,-10 -7,-6 -18,-11 -5,-2 -2,-2 -7,-3 -15,10 -8,16 -16,26 -10,14 -6,18 -10,32 -3,15 -4,-3 -13,29 -3,12 -4,6 -9,13 -6,9 -3,15 -10,22 -3,3 -2,1 -5,5 -4,7 -3,11 -5,17 -4,8 -6,2 -11,11 -1,2 -1,4 -3,7l-8 10c0,0 0,0 0,0 -7,7 -5,11 -9,15 -3,3 -3,0 -7,5 -6,6 1,7 -9,12 -12,6 -5,6 -10,12 -6,5 -5,-3 -14,11 -2,2 0,1 -3,3 -3,1 -4,1 -8,3 -6,5 -2,6 -10,10 -4,3 -12,5 -15,8 -5,4 -2,7 -10,9 -23,7 -7,9 -29,15 -9,3 -8,3 -14,8 -8,8 -21,5 -31,11 -7,4 -4,6 -14,8 -7,1 -12,1 -20,2 -12,1 -25,3 -37,5 -22,5 -2,3 -36,7 -16,2 -43,1 -61,-1 -6,-1 -10,-4 -16,-6 -9,-4 -22,-5 -35,-7 -9,-2 -6,-4 -14,-8 -6,-4 -9,-3 -16,-5 -8,-2 -8,-2 -14,-7 -6,-6 -6,-5 -14,-7 -9,-2 -9,-4 -14,-8 -6,-6 -7,-4 -15,-7 -8,-2 -6,-5 -11,-9 -5,-4 -10,-4 -16,-7 -6,-3 -1,1 -5,-5 -2,-3 -1,-3 -6,-5 -22,-9 -10,-10 -26,-16 -12,-6 -5,-4 -12,-10 -5,-6 -25,-9 -32,-3 -15,12 -29,31 -44,41 -6,4 -6,5 -11,10 -5,6 -9,4 -14,8 -8,5 0,6 -12,9 -4,2 -13,5 -16,7 -6,5 1,5 -12,8 -38,7 -14,12 -50,15 -3,15 5,17 -48,16l-48 0c-8,0 -7,-2 -13,-4l0 -12c-24,0 -20,-6 -31,-11 -6,-2 -10,-2 -17,-4 -10,-2 -6,-4 -13,-9 -6,-4 -10,-3 -17,-5 -6,-3 -6,-7 -12,-10 -4,-3 -12,-4 -15,-6 -5,-4 -2,-7 -12,-11 -12,-5 -4,-4 -11,-10 -4,-5 -6,-2 -12,-10 -5,-6 -6,-5 -11,-10 -3,-3 -2,-4 -4,-6 -4,-4 -4,-3 -7,-5 -6,-6 -3,-7 -9,-13 -14,-11 -7,-12 -15,-17 -6,-4 -4,0 -6,-5 -3,-6 -3,-9 -8,-14 -6,-7 -8,-14 -12,-19 -3,-3 -4,-2 -6,-5 -5,-4 -3,-9 -7,-15 -4,-6 -7,-5 -10,-12 -2,-7 -1,-11 -5,-17 -10,-18 -4,5 -12,-32 -1,-9 -2,-9 -6,-15 -9,-13 -3,-38 -13,-53 -9,-13 -5,-22 -11,-32 -5,-8 -7,-2 -9,-12 -2,-7 -2,-12 -6,-17l-5 -5c-7,-7 -3,-12 -12,-20 -5,-4 -5,-7 -9,-13 -4,-8 -5,-6 -10,-11 -5,-4 -6,-8 -11,-11 -4,-3 -11,-5 -15,-8 -6,-6 5,4 -1,-2 -3,-2 0,0 -3,-3 -2,-1 -5,-3 -8,-3 -24,-7 -75,-7 -100,0 -9,3 -6,6 -12,10 -6,5 -9,2 -13,9 -2,3 -1,3 -4,6 -3,2 -5,2 -8,4 -4,3 -4,9 -9,12 -4,3 -3,1 -6,5 -3,4 -2,4 -4,7 -3,7 -6,5 -10,11 -2,3 -5,12 -7,14 -4,6 -6,1 -10,12 -1,3 -1,5 -3,8 -3,6 -1,1 -5,5 -4,4 -6,9 -7,15 -3,13 -3,4 -9,13 -4,5 -4,9 -6,16 -3,11 -5,4 -9,12 -3,5 -3,11 -6,17 -3,10 -5,4 -9,12 -3,5 -3,12 -5,17 -3,6 -7,4 -10,12 -2,5 -3,13 -5,16 -4,6 -6,2 -10,13 -6,19 -11,12 -15,28 -4,11 -3,5 -10,11 -3,3 -4,9 -8,13 -3,5 -7,6 -10,12 -5,9 -1,7 -10,12 -8,5 -4,8 -9,12 -1,2 -5,3 -7,4 -4,3 -2,2 -5,6 -4,6 -12,9 -18,14 -12,11 -16,10 -20,14 -6,7 -1,5 -13,8 -5,1 -11,4 -15,7 -11,10 -18,6 -33,11 -7,2 -9,6 -14,8 -10,4 -27,2 -36,7 -7,4 -3,5 -13,8 -23,5 -44,1 -75,11 -5,2 -14,3 -19,3 -39,4 -87,0 -123,7 -19,4 -42,3 -63,3 -25,1 -90,-9 -120,-8 -12,0 -29,-1 -38,-6 -6,-2 -9,-4 -16,-5 -13,-3 -29,-2 -39,-5 -13,-3 -15,-10 -32,-12 -30,-3 -16,-4 -32,-11 -6,-3 -11,-2 -18,-4 -13,-3 -9,-8 -30,-14 -13,-3 -8,0 -15,-7 -8,-9 -17,-5 -28,-15 -5,-5 -8,-4 -14,-7 -6,-3 -7,-7 -12,-10 -5,-4 -12,-4 -15,-7 -5,-4 -5,-7 -12,-10 -9,-4 -5,-5 -12,-10 -5,-4 -7,-4 -12,-9 -9,-10 -11,-8 -23,-21 -6,-7 -7,-1 -12,-10 -4,-7 -6,-6 -11,-11 -4,-3 -3,-6 -10,-11l-20 -23c-4,-5 -17,-19 -20,-24 -5,-11 -6,-4 -10,-10 -5,-6 -1,-8 -9,-14 -9,-6 -3,-4 -8,-13 -3,-5 -7,-9 -10,-12 -4,-5 -3,-9 -8,-14 -8,-9 -4,0 -9,-13 -2,-6 -3,-10 -7,-14 -6,-5 -6,-6 -8,-14 -4,-18 -9,-6 -14,-29 -2,-9 -3,-9 -8,-14 -8,-8 -5,-24 -11,-33 -11,-16 -6,-8 -11,-32 -3,-16 -8,-13 -11,-32 -2,-14 -2,-26 -5,-38 -3,-16 -6,-14 -9,-35 -2,-18 -3,-71 -1,-86 1,-11 0,-27 3,-40l6 -16c1,-5 3,-13 3,-18 2,-12 2,-29 5,-38 4,-12 7,-5 11,-32 4,-25 9,-16 13,-31 1,-4 2,-15 4,-18 3,-5 5,-2 9,-12 3,-6 2,-12 5,-16 5,-6 7,-5 10,-13 3,-6 2,-11 7,-15 8,-7 4,-3 9,-12 3,-5 6,-8 10,-12 3,-4 5,-12 8,-14 5,-6 5,0 10,-11 5,-11 5,-5 11,-11 7,-7 -1,-5 11,-12 7,-4 5,-8 10,-11 6,-5 6,-1 11,-10 5,-7 10,-5 15,-12 6,-7 16,-9 23,-16 6,-8 13,-6 18,-14 3,-4 -1,-2 7,-5 18,-6 16,-13 27,-16 5,-1 10,-2 13,-6 1,0 1,0 1,0 0,-1 1,-1 1,-1 6,-6 14,-6 22,-10 3,-1 1,0 4,-2 6,-5 9,-8 18,-9 18,-4 14,-10 30,-13 40,-8 15,-13 70,-17 33,-2 25,-10 77,-10 43,0 39,-3 80,6 17,4 68,6 77,11 23,12 37,6 51,12 17,8 1,6 32,12 14,2 12,9 31,13 16,4 14,9 29,14 8,3 10,2 15,7 4,6 7,5 14,8 8,3 5,5 12,10 5,3 12,4 15,7 6,4 -1,5 11,10 11,4 5,5 11,11 4,3 8,5 12,10 4,6 6,5 11,9 6,7 0,6 10,12 9,5 3,6 9,13 3,2 4,2 6,3 5,4 2,1 4,8 4,10 6,6 10,12 3,4 5,10 7,14 5,8 8,4 11,12 8,24 10,13 14,29 3,9 2,9 8,14 9,10 5,22 11,33 8,13 6,-2 11,32 3,23 13,23 13,53 0,44 16,97 9,141 -3,26 -8,51 -9,78 -3,56 -15,27 -15,73 7,4 5,15 5,23 -1,8 -4,11 -10,13 -7,2 -6,4 -5,10 0,4 1,8 0,11 -1,7 -4,9 -9,12l-2 1c0,0 -1,0 -1,1 0,6 1,13 -2,17 -4,6 -12,5 -13,12 -1,6 0,13 -5,17 -13,11 -5,7 -10,14 -5,6 -11,2 -15,11 -2,5 -3,9 -8,11l-7 11c-2,4 -4,6 -8,8 -10,4 -2,9 -9,15 -7,5 -9,0 -15,4 -6,5 0,6 -10,10 -5,2 -10,2 -11,9l2 -1c0,0 1,0 1,-1l4 -1c-4,3 -2,1 -4,5 -3,6 -1,6 -8,8 -20,6 -1,13 -31,13l-12 14c-15,5 -7,4 -15,12 -5,4 -15,1 -21,4 -8,5 0,10 -16,11l0 2c-10,0 -15,-1 -23,-1 0,24 -24,11 -39,17 0,0 -3,1 -4,2l-4 5c-2,3 -3,4 -6,4 -6,2 -31,1 -40,1 -7,0 -12,0 -18,-2 -8,-2 -6,-6 -9,-13l-25 1c-3,-5 -3,-6 -5,-10 -3,-5 -5,-3 -9,-7 -7,-5 -2,-3 -6,-8 -7,-10 -18,-8 -12,-32 0,-2 1,-4 1,-4 3,-6 7,-9 12,-11 0,-5 0,-10 3,-13 0,0 4,-2 4,-2 11,-6 5,-6 18,-15 5,-3 2,0 4,-5 0,0 0,0 0,-1 0,0 0,0 0,-1 1,0 1,0 1,-1l2 -3c3,-2 1,0 3,-2 7,-4 5,0 9,-7 5,-11 10,-6 24,-7 6,-18 12,-13 29,-15 9,-20 4,-12 29,-14 3,-5 3,-11 9,-13 8,-2 14,2 20,-3 4,-3 7,-7 13,-8 5,-2 13,-2 16,-6 6,-7 -3,-5 11,-11 11,-4 3,-5 9,-12 7,-7 7,3 11,-10 4,-10 6,-6 14,-9l3 -20c4,-2 4,-2 9,-2 2,-18 2,-21 17,-21l3 -8c3,-11 10,-13 13,-26 2,-12 2,-21 7,-30 9,-15 8,-39 2,-54 -3,-7 -6,-10 -7,-19 -2,-7 -2,-15 -4,-22 -2,-8 -7,-10 -9,-16 -3,-6 -3,-14 -6,-20 -2,-6 -3,-4 -6,-7 -7,-7 -2,-16 -14,-25 -5,-4 -4,-10 -9,-16 -4,-7 -7,-7 -11,-15 -6,-14 -8,-6 -12,-14 -3,-4 -3,-8 -8,-11 -11,-6 -3,-8 -16,-16 -7,-4 -4,-9 -12,-14 -7,-3 -3,2 -7,-5 -6,-12 -7,-5 -14,-12 -9,-11 -11,-8 -21,-17 -7,-6 -19,-6 -26,-12l-8 -6c-12,-5 -29,-3 -41,-10 -19,-10 -51,-5 -72,-6 -17,0 -29,3 -43,9 -12,4 -32,3 -44,8 -9,3 -5,6 -16,8 -27,6 -20,11 -36,16 -3,1 -7,2 -9,3 -6,3 -3,4 -7,7 -6,5 -11,2 -22,15 -3,3 -5,4 -8,5 -9,5 -4,8 -13,14 -4,2 -4,1 -7,5 -3,4 -1,5 -6,8 -14,12 -6,9 -18,19 -3,3 -4,5 -6,8 -2,4 -2,5 -4,9 -2,5 -2,2 -7,6 -4,4 -4,12 -9,17 -5,4 -8,7 -10,15 -4,14 -3,7 -9,16 -7,10 -4,27 -11,41 -9,16 -12,118 -1,141 8,18 5,27 9,43 3,11 6,10 9,16 4,7 3,22 10,29 6,6 3,-1 6,8 8,28 7,15 13,25 3,5 3,14 7,18 6,9 5,2 11,16 2,4 2,4 5,7 8,7 8,17 16,22l4 3c4,4 3,8 7,12 5,3 5,1 8,5 3,4 1,5 4,8 6,8 3,-2 13,14 3,5 2,3 7,5 9,5 2,8 12,13 7,5 2,-1 7,6 6,11 8,6 14,13 2,3 1,4 5,7 4,3 5,2 8,5 6,6 3,7 13,12 11,5 7,10 25,14 13,3 7,5 16,10 8,4 13,3 21,6 7,2 7,6 15,9 7,3 14,3 22,5 10,2 1,7 38,13 29,4 16,12 64,12l49 2c9,0 14,-2 25,-2 39,1 35,-9 64,-12 8,-1 16,-2 22,-4 9,-3 7,-7 17,-10 7,-2 14,-1 21,-5 10,-4 2,-6 15,-9 20,-5 15,-11 25,-15 17,-5 11,-7 24,-14 3,-2 5,-3 8,-4 6,-5 4,-7 14,-13 8,-5 2,-7 12,-12 5,-3 3,-1 7,-7 2,-4 0,-4 5,-7 4,-3 4,-1 7,-6 4,-5 6,-9 11,-14 2,-2 4,-5 5,-8 3,-4 2,-5 4,-9 4,-7 8,-3 12,-15 4,-13 5,-6 10,-15 4,-6 4,-13 7,-18 6,-6 8,-4 11,-15 5,-19 2,-8 10,-17 4,-5 4,-12 6,-20 3,-9 6,-3 10,-14 3,-7 3,-14 7,-19 15,-19 6,-24 17,-36 7,-8 6,-18 9,-28 3,-10 8,-4 12,-27 2,-12 2,-11 8,-18 4,-6 5,-11 7,-19 2,-14 2,-8 9,-17 3,-5 4,-14 5,-20 3,-11 7,-8 10,-16 3,-6 4,-14 5,-20 3,-10 7,-8 10,-16 2,-6 3,-16 6,-21 4,-6 7,-4 11,-15 0,-2 1,-7 2,-9 3,-7 8,-7 11,-15 5,-12 5,-3 12,-14l7 -12c4,-5 7,-5 10,-11 7,-15 5,-5 11,-13 3,-4 2,-6 4,-9 4,-5 3,-1 8,-5 7,-5 2,-8 12,-13 11,-7 2,-8 14,-13 10,-4 7,-4 14,-10 6,-5 12,-4 19,-7 8,-4 5,-7 16,-10 6,-2 16,-3 21,-5 8,-5 4,-7 16,-10 14,-2 29,-3 43,-9 6,-2 14,-4 21,-5 19,-2 53,-2 72,1 10,2 13,8 38,12 15,3 9,4 18,9 7,4 10,4 19,6 6,2 9,8 15,11 9,4 9,0 16,8 6,8 8,6 16,11 5,3 8,9 14,12 5,2 5,0 8,5 3,4 1,5 5,8 3,3 5,2 8,4 2,2 2,6 4,9 4,6 7,3 12,14 5,9 4,8 11,15 7,5 3,10 8,18 4,7 7,5 10,15 2,7 2,14 5,20 6,10 6,4 9,18 2,7 2,15 3,23 2,7 4,12 7,18 3,5 4,14 5,21 0,9 0,17 1,24 1,16 1,30 5,46 1,6 5,13 5,20 2,16 3,32 3,50 0,50 12,47 15,88 1,26 10,24 12,38 8,45 8,19 14,38 3,9 3,12 9,16 10,8 3,9 16,17 4,3 5,7 9,10 5,3 9,3 12,8 2,2 1,2 3,4 5,4 12,4 17,7 8,4 2,7 16,11 6,1 16,2 21,5 7,3 11,6 19,7 18,2 41,2 52,-7 10,-7 20,-3 30,-14 5,-7 10,-4 15,-10 3,-4 0,-3 5,-8 3,-2 5,-2 8,-5 3,-3 4,-10 9,-16 10,-11 7,-27 12,-40 2,-6 5,-11 6,-19 4,-22 4,-88 -3,-108 -4,-11 -5,-21 -6,-33 -2,-18 0,-29 -8,-42 -7,-12 -5,-31 -11,-42 -3,-8 -7,-8 -9,-16 -1,-8 -1,-15 -4,-22 -5,-18 -10,-5 -12,-40 -1,-16 -4,-31 -5,-46 -3,-19 3,-30 5,-44 5,-40 5,-17 13,-38 5,-12 -1,-8 10,-16 7,-5 2,-8 12,-14 10,-6 3,-8 13,-12 14,-6 7,-8 15,-11 6,-3 14,-4 20,-6 8,-4 6,-6 18,-8 10,-2 14,0 22,0 13,1 9,4 20,7 7,2 14,3 21,5 16,4 7,4 16,10 3,3 4,2 8,4 6,3 2,2 5,8 5,9 9,2 12,14 6,23 11,14 15,36 1,8 2,14 3,21 2,9 5,12 8,19 1,4 3,17 3,23 0,10 1,16 1,25 1,63 10,88 12,142 0,8 1,14 1,25 0,14 1,33 4,47 2,9 6,11 8,18 3,14 1,33 10,42 8,10 4,18 11,27 3,5 3,2 7,6 5,6 0,8 9,17l15 17c0,0 1,0 1,0 6,7 14,9 18,13 10,11 16,6 26,13 14,9 14,10 41,10 10,0 14,2 24,2 9,0 18,0 26,0 11,0 15,-2 25,-2 -3,-15 1,-14 13,-17 10,-3 21,-1 32,-2 2,-5 -2,-13 19,-15 0,-4 0,-6 3,-8 4,-3 5,0 10,-3 7,-5 -4,-9 13,-13 0,-10 1,-15 10,-16l-3 -2c5,-2 4,0 7,-5 1,-2 1,-6 1,-10 0,-3 1,-7 3,-9 3,-2 5,-1 8,-3 1,-7 1,-23 4,-28 4,-6 10,-5 17,-5 0,-5 0,-8 1,-13 2,-7 2,-5 5,-10 4,-5 6,-16 6,-23 2,-17 1,-38 6,-52 2,-9 4,-12 6,-23l3 -55c0,-12 2,-18 2,-29 -4,-7 -5,-79 -4,-93 1,-17 -1,-28 -1,-45l1 -144c0,-18 0,-52 1,-71 1,-13 4,-12 5,-18 6,0 4,0 11,0 0,-41 7,-32 11,-55 5,-22 0,-25 11,-37 4,-4 4,-6 5,-12 5,-16 5,-10 12,-20 3,-4 2,-7 5,-11 4,-3 7,-1 11,-7 4,-5 0,-6 7,-8 27,-9 12,-15 35,-15l0 -11c11,-7 25,-5 42,-5 37,0 23,5 29,16 10,0 11,4 15,8 6,6 13,6 17,8 6,4 1,5 6,10 5,4 6,1 10,6 2,2 3,7 5,11 7,8 9,5 12,19 4,16 8,12 11,22 3,10 5,60 -2,73 -2,4 -4,5 -6,12 -4,15 -2,43 -8,56 -4,12 -5,6 -7,24l-5 60c-1,11 -5,15 -7,26 -7,36 -8,171 0,183 3,6 4,2 7,9 2,4 2,7 6,10 6,4 23,2 29,0l27 -20c3,-4 2,-6 8,-10 8,-4 4,0 8,-7 7,-11 5,-1 16,-17 4,-6 5,-5 8,-7 3,-3 4,-6 7,-10 1,0 3,-3 4,-3l7 -8c0,0 0,0 0,0 2,-2 3,-3 4,-5 7,-11 8,-6 15,-19 4,-6 4,-3 9,-7 6,-4 3,-7 7,-10 2,-3 5,-2 9,-6 5,-5 1,-6 6,-9 4,-3 7,-3 11,-6 8,-5 10,-11 22,-11zm-1016 -1566c-9,0 -17,2 -27,2 -26,0 -64,2 -84,10 -19,9 -58,3 -80,11 -5,2 -7,4 -11,5 -29,7 -32,-2 -64,13 -14,7 -38,2 -52,11 -8,5 -12,6 -23,7 -32,3 -24,11 -47,14 -37,6 -22,12 -47,15 -25,3 -20,11 -47,15 -5,0 -8,1 -12,3 -6,3 -6,5 -10,7 -4,2 -19,4 -25,5 -12,3 -10,9 -20,11 -46,9 -16,11 -46,15 -10,2 -14,4 -22,10 -6,5 -15,4 -23,6 -11,4 -10,9 -20,11 -9,2 -17,2 -24,8 -7,6 -13,6 -22,9 -13,3 -12,8 -20,11 -9,4 -15,1 -24,7 -14,10 -2,5 -22,10 -11,3 -10,9 -19,11 -9,3 -16,3 -23,8 -7,7 -11,7 -21,10 -11,2 -12,8 -20,11 -9,4 -15,2 -22,9 -3,3 1,0 -3,4 -6,3 -13,3 -18,5 -10,4 -6,9 -19,11 -13,3 -12,6 -21,12 -6,4 -15,2 -22,8 -12,9 -4,5 -20,10 -12,4 -10,10 -19,12 -14,5 -10,2 -21,11 -6,6 -14,4 -21,9 -6,5 -2,4 -9,8 -4,2 -8,2 -12,4 -8,3 -6,7 -19,11 -5,2 -7,2 -11,5 -5,5 -1,5 -8,8 -33,11 -11,10 -30,15 -10,3 -11,6 -18,12 -6,5 -11,3 -17,7 -6,5 -5,6 -14,10 -16,6 -12,10 -18,12 -27,11 -11,7 -24,15 -5,3 -10,2 -15,8 0,0 -1,0 -1,0 0,1 0,1 0,1l-9 5c-4,2 -8,3 -11,5 -5,3 -3,4 -7,7 -4,4 -6,3 -11,5 -8,4 -8,9 -18,13 -12,5 -10,10 -17,13 -6,2 -10,4 -15,8l-15 9c-7,4 -3,2 -8,8 -2,3 1,1 -4,3 -9,5 -7,1 -15,10 -5,5 -13,6 -19,11 -5,5 -1,5 -8,8 -21,10 -6,8 -18,13 -7,3 -5,1 -10,5l-18 13c-4,3 -4,4 -7,7 -6,8 -3,3 -10,6 -6,3 -5,6 -8,9 -4,4 -12,4 -19,11 -5,6 -12,8 -16,14 -9,11 -12,6 -17,13 -5,7 -1,4 -9,8 -11,5 -4,7 -18,14 -7,4 -10,9 -16,14 -4,3 -10,6 -12,10 -4,4 -9,5 -13,10 -6,6 1,4 -8,9 -4,2 -7,1 -9,6 -5,7 2,4 -8,8 -6,2 -5,1 -8,6 -6,10 -9,5 -16,15l-119 113c-3,3 -3,5 -6,8 -4,4 -6,3 -9,8 -2,3 -4,5 -7,8l-22 25c-4,3 -1,-1 -4,4 -7,9 -4,5 -11,12 -4,3 -3,5 -5,9 -3,3 -1,1 -4,3 -8,5 -5,5 -10,13 -4,5 -6,2 -10,7 -3,4 -1,6 -6,10 -4,4 -4,2 -8,8l-13 17c-5,5 -3,4 -7,9 -4,7 -4,4 -8,8 -2,3 -3,7 -5,10 -2,4 -4,3 -8,8 -4,4 -3,5 -6,10 -3,4 -5,4 -8,7 -5,6 -7,14 -12,19 -9,8 -4,12 -13,18 -7,5 -6,12 -12,18l-2 2c0,0 -1,1 -1,1 0,0 0,0 -1,1 0,0 -3,4 -3,4 -3,5 -3,9 -5,12 -4,7 -4,-3 -13,18 -4,9 -9,7 -12,18 -2,4 -1,7 -4,10 -10,10 -7,2 -13,20 -2,7 -2,4 -7,9 -7,6 -4,13 -10,20 -2,3 -5,4 -7,8 -2,4 -2,7 -3,12 -4,9 -9,7 -12,18 -2,5 -2,9 -4,13 -2,3 -5,4 -8,8 -5,8 -2,15 -8,22 -4,5 -4,3 -7,9 -2,5 -2,7 -3,13 -4,15 -6,1 -15,32 0,1 -1,4 -2,5l-3 5c-11,12 -5,24 -13,32 -13,13 -6,23 -14,33 -14,20 -6,19 -12,35 -5,12 -6,-1 -13,33 0,2 0,4 -1,6 -2,6 -6,9 -8,15 -3,7 -4,20 -5,27 -3,11 -7,9 -10,21 -3,11 -1,27 -7,38 -6,11 -9,10 -10,38 0,7 -2,21 -4,26 -4,8 -7,14 -8,24 -2,14 -1,31 -3,44 -1,4 -2,9 -2,13l-8 0 0 187c7,0 7,-1 9,5 5,19 0,40 7,58 3,10 6,7 8,20 1,10 1,24 6,33 2,5 4,4 6,9 2,5 3,15 4,21 3,16 5,10 10,19 2,4 3,14 5,20 3,11 7,8 10,16 7,16 1,12 13,27 3,3 3,6 4,10 3,10 5,9 10,16 4,6 4,14 9,19 6,4 4,-1 7,6 9,23 11,15 16,25 1,3 1,6 4,9 3,4 5,2 7,5 3,3 3,6 4,10 2,4 4,4 7,6 5,4 9,15 17,22 5,4 8,11 13,15 5,3 3,2 6,7 6,10 9,4 14,13 5,10 8,7 15,17 3,4 0,1 4,4 4,3 5,1 8,6 3,4 1,4 6,7 4,4 3,1 8,5 6,6 5,7 13,13 7,5 5,7 14,13l15 12c3,4 3,3 8,5 8,3 3,0 7,6 6,9 10,3 16,12 5,6 8,7 15,10 11,5 6,9 16,12 15,5 6,4 15,11 5,4 13,5 18,9 8,7 5,6 16,10 7,2 8,8 16,12 9,4 11,1 17,8 6,7 11,7 19,9 9,3 4,8 25,14 9,2 4,-1 10,5 3,5 11,7 17,9 14,3 8,5 17,10 5,3 14,3 20,5 6,2 7,7 17,10 7,2 17,3 21,6 8,4 5,6 18,9 31,7 11,1 29,10 4,2 7,3 11,4 7,1 16,2 22,4 17,5 3,8 41,12 2,0 7,1 11,2 17,3 -5,6 55,12 9,1 15,2 21,6 28,13 66,4 96,12 7,2 14,4 22,5 40,6 254,7 272,4 14,-2 64,-1 92,-6 8,-1 13,-3 21,-4 17,-3 32,-1 48,-2 31,-3 75,0 104,-9 18,-5 37,-5 58,-6l69 -4c15,-2 29,-6 43,-8l97 -4c27,0 64,-5 91,-9 40,-4 225,-4 251,0 44,8 77,8 122,12 7,1 9,1 15,1 11,2 16,7 41,10 14,2 31,0 44,5 4,2 8,4 12,6 15,5 46,3 57,9 24,13 37,6 54,13 4,2 5,4 10,6 13,5 31,3 43,8 10,5 9,8 24,10 46,7 19,11 51,15 10,1 19,2 26,7 11,8 27,6 40,10 12,5 0,7 38,13 11,2 12,7 23,10 18,5 23,1 39,10 12,8 29,5 42,10 6,2 4,3 10,6 13,6 29,5 43,7 17,3 14,12 54,13 6,0 10,-1 16,0 5,1 11,2 15,2l0 8 146 0 0 -8c9,0 14,-3 25,-2 49,0 34,-11 72,-15 22,-3 20,-9 31,-12 8,-2 16,-2 23,-6 5,-2 4,-3 8,-6 7,-4 15,-4 22,-7 7,-4 9,-9 17,-11 3,-1 8,-2 11,-4 3,-2 4,-4 7,-6 6,-5 15,-5 20,-10 5,-5 -1,-4 8,-7 17,-7 15,-12 26,-17 11,-5 6,-8 17,-12 12,-6 4,-8 16,-13 9,-5 15,-13 23,-19 9,-7 20,-23 30,-29 6,-4 7,-9 14,-14 9,-7 22,-29 30,-35 9,-8 7,-12 13,-17 2,-1 2,0 4,-2 5,-5 3,-6 5,-10 5,-8 5,2 13,-15 3,-6 3,-4 7,-7 5,-5 7,-13 11,-18 3,-4 5,-3 8,-7 2,-4 2,-7 4,-11 4,-5 9,-6 13,-16 4,-8 9,-10 12,-17 2,-3 2,-7 4,-10 3,-4 4,-3 7,-7 5,-6 6,-16 10,-20 4,-3 4,0 7,-7 2,-4 2,-7 4,-11 4,-7 8,-5 11,-16 5,-16 6,-9 12,-18 3,-5 4,-16 8,-20 11,-10 5,-3 11,-18 3,-8 9,-10 11,-17 3,-11 2,-12 9,-20 8,-7 4,-12 9,-20 5,-8 8,-6 11,-18 3,-11 5,-9 10,-17 7,-10 4,-18 11,-26 7,-7 6,-17 11,-26 2,-4 3,-4 6,-7 5,-6 5,-16 7,-23 2,-9 8,-9 10,-18 2,-8 2,-18 6,-24 5,-7 8,-9 10,-19 5,-31 2,-14 11,-31 1,-4 2,-6 3,-12 6,-39 2,-17 10,-33 7,-14 2,-34 10,-48 7,-10 8,-22 9,-35 1,-21 2,-20 8,-34 1,-4 2,-7 3,-11 4,-21 0,-45 7,-65 5,-13 7,-20 9,-36 0,-4 0,-9 0,-14 0,-7 1,-7 1,-13 1,-9 0,-20 0,-29 1,-8 3,-19 3,-26l8 0 0 -308c-6,0 -4,0 -8,-1 0,-13 -3,-24 -3,-38 1,-22 0,-55 -6,-75 -6,-24 -3,-6 -7,-35 -2,-17 0,-38 -6,-55 -2,-6 -5,-8 -6,-14 -3,-13 -2,-23 -4,-37 -3,-26 -5,-17 -10,-32 -5,-14 -2,-37 -9,-52 -3,-5 -6,-7 -7,-14 -1,-11 -2,-25 -5,-35 -3,-7 -5,-6 -8,-13 -1,-4 -2,-12 -3,-18 -2,-22 -7,-18 -11,-30 -4,-10 -3,-26 -8,-34 -4,-7 -5,-3 -7,-13 -1,-5 -2,-11 -3,-17 -3,-14 -10,-15 -13,-30 -1,-6 -1,-11 -4,-16 -12,-18 -6,-9 -12,-29 -2,-7 -3,-8 -7,-13 -8,-8 -3,-21 -11,-29 -5,-5 -6,-6 -8,-13 -4,-21 -9,-15 -13,-29 -8,-25 -9,-15 -14,-27 -2,-5 -2,-11 -5,-15 -3,-5 -5,-5 -9,-12 -3,-7 -3,-15 -9,-20 -5,-4 -2,1 -5,-6 -2,-6 -2,-12 -5,-16 -5,-7 -7,-3 -10,-11 -7,-24 -11,-15 -15,-26 -3,-9 0,-7 -7,-13 -5,-6 -4,-5 -7,-13 -4,-9 -2,-6 -9,-12 -6,-4 -4,-6 -7,-13 -3,-5 -7,-8 -10,-12 -4,-6 -4,-11 -9,-15 -10,-7 -5,-9 -11,-16 -3,-4 -2,-1 -5,-4 -5,-5 -8,-15 -13,-20 -8,-7 -9,-13 -14,-16 -5,-4 -2,1 -6,-5 -1,-2 -1,-4 -3,-7 -4,-8 -7,-3 -11,-10 -5,-9 -1,-6 -9,-12 -5,-3 -4,-6 -8,-12l-40 -41c-6,-5 -3,-7 -9,-11l-27 -25c-2,-2 -4,-4 -6,-5 -7,-6 -14,-14 -22,-18 -8,-4 -4,-6 -10,-11 -7,-5 -7,0 -12,-8 -6,-9 -5,-4 -12,-9 -7,-4 -1,-6 -11,-11 -6,-3 -7,-3 -11,-8 -1,0 -1,-1 -1,-1l-11 -8c-5,-1 -7,-2 -9,-5l-3 -4c-4,-4 -9,-3 -13,-6 -7,-6 0,-5 -11,-10 -21,-11 -8,-4 -18,-12 -3,-3 -4,-2 -7,-4 -14,-4 -10,-11 -26,-15 -13,-4 -2,-6 -26,-15 -9,-3 -7,-5 -13,-9 -4,-3 -10,-4 -15,-6 -6,-3 -6,-6 -11,-8 -5,-3 -10,-3 -16,-5 -7,-3 -7,-6 -12,-9 -5,-3 -12,-4 -16,-5 -9,-3 -7,-4 -12,-8 -9,-7 -21,-3 -30,-12 -11,-11 -19,-4 -30,-10 -6,-3 -3,-5 -12,-8 -11,-4 -23,-2 -32,-11 -4,-4 -7,-4 -14,-5 -5,-1 -11,-2 -17,-3 -11,-3 -6,-3 -13,-8 -8,-4 -24,-4 -34,-7 -12,-2 -12,-9 -31,-11 -46,-4 -24,-11 -67,-15 -4,0 -13,-1 -18,-2 -17,-3 -14,-9 -50,-12 -13,-1 -25,0 -37,-3 -14,-4 -13,-6 -34,-9 -16,-2 -48,-2 -58,-3 -5,0 -13,-2 -19,-2 -2,-4 -1,-2 -1,-8l-296 0c-1,5 0,4 -2,8z"/>
   <path class="fil0" d="M3368 2856c0,9 -1,9 2,15 9,4 24,3 35,3 47,0 32,-12 42,-16 5,-2 10,1 15,-2 5,-2 3,-6 4,-13 1,-8 3,-6 12,-6 5,-9 6,-9 5,-23 -2,-47 9,-65 -16,-66l-1 -27c-3,-2 -3,-1 -7,-3 -5,-2 -2,2 -5,-3 -3,-4 -2,-11 -2,-18 -5,-4 -3,-5 -11,-5 -2,-21 -10,-12 -15,-23 -1,-1 -2,-4 -4,-6 -3,-4 -1,-2 -5,-4 -4,-3 -1,1 -5,-5 -4,-7 -7,-7 -16,-17 -4,-5 -1,-1 -4,-5 -7,-6 -2,-7 -8,-11 -3,-3 -12,-5 -12,-5 -2,-5 -2,-8 -6,-10 -6,-4 -9,-1 -13,-8 -2,-4 1,1 -1,-3 -4,-6 -11,-4 -18,-4 -1,-2 -1,-1 -2,-4 -7,-11 0,-6 -13,-12 -11,-5 0,-7 -15,-15 -5,-2 -2,1 -6,-5 -1,-3 -1,-3 -4,-6 -5,-4 -10,0 -16,-4 -5,-4 0,-5 -11,-9 -17,-7 -2,-11 -22,-19 0,-7 -1,-10 -2,-15l-11 0c-1,-8 -2,-8 -5,-12 -27,-1 -6,-10 -29,-15 -8,-2 -6,1 -10,-5 -4,-5 0,-4 -7,-8 -10,-5 -3,2 -8,-7 -4,-9 -9,-6 -18,-10 1,-10 2,-7 10,-9 8,-2 4,-8 11,-12 6,-3 5,1 9,-3 2,-2 4,-9 5,-12 29,-1 16,-2 26,-10 6,-5 12,0 24,-5 0,0 0,0 1,0 2,-1 1,3 1,-1 3,-3 1,-4 4,-8l2 -2c4,-3 8,-2 10,-6 1,0 1,-1 1,-1 0,0 0,-1 0,-1 2,-5 0,-9 4,-10l8 0c13,1 13,-3 18,-14l18 0 8 -11c4,-4 8,-3 13,-6 3,-2 2,-2 3,-6 3,-7 9,-10 18,-11 0,-12 2,-4 3,-12l11 -1c1,-5 0,-13 7,-15l8 -1c1,-22 10,-8 13,-16l6 -18c18,-1 14,-11 12,-21 -1,-8 1,-7 1,-14 5,0 12,4 15,-15 2,-17 -2,-19 -5,-23l-12 0c0,9 0,44 -2,50 -2,5 -3,4 -5,7 -4,3 -6,8 -8,14 -3,12 -1,5 -9,11 -4,4 -3,8 -9,13 -11,8 -3,1 -10,11 -4,6 -8,2 -12,10 -6,9 -3,4 -11,9 -8,4 -3,8 -11,11 -12,6 -3,-1 -12,10 -5,5 -16,6 -21,11 -3,2 -3,3 -6,6 -3,2 -12,3 -16,5 -8,4 -5,7 -12,10 -5,3 -11,2 -16,6 -5,3 -5,6 -11,9 -7,3 -10,1 -15,6 -6,5 -5,6 -13,9 -23,9 -7,8 -20,13 -22,8 -10,8 -25,17 -4,2 -4,0 -7,4 -4,5 -9,23 1,31 3,2 3,0 6,4 5,6 -1,5 10,11 6,3 3,1 6,6 6,9 7,4 13,9 6,6 -2,6 11,11 13,5 -3,3 17,15 5,3 2,4 18,15l4 3c0,1 0,1 0,1 10,10 17,10 20,13 7,8 -1,5 12,11 8,3 5,6 11,10 6,4 6,1 12,9 4,4 7,6 13,9 14,7 5,10 18,14 5,1 4,-1 7,4 2,3 1,3 5,6 2,2 3,2 6,3 9,4 6,5 12,10 4,4 9,5 13,9 5,3 7,8 12,10 13,6 4,2 11,11 6,7 7,-1 12,10 5,12 5,6 11,11 2,1 4,9 7,14 4,4 7,5 10,11 15,29 9,3 15,27 5,18 11,5 14,29 3,21 19,40 11,61 -2,7 -6,7 -10,22 -3,10 -2,6 -11,11 -15,9 12,5 -29,15 -35,8 -30,-1 -57,-3z"/>
   <path class="fil0" d="M1093 2418c-15,0 -15,3 -17,21 -5,0 -5,0 -9,2l-3 20c-8,3 -10,-1 -14,9 -4,13 -4,3 -11,10 -6,7 2,8 -9,12 -14,6 -5,4 -11,11 -3,4 -11,4 -16,6 -6,1 -9,5 -13,8 -6,5 -12,1 -20,3 -6,2 -6,8 -9,13 -25,2 -20,-6 -29,14 -17,2 -23,-3 -29,15 -14,1 -19,-4 -24,7 -4,7 -2,3 -9,7 -2,2 0,0 -3,2l-2 3c0,1 0,1 -1,1 0,1 0,1 0,1 0,1 0,1 0,1 -2,5 1,2 -4,5 -13,9 -7,9 -18,15 0,0 -4,2 -4,2 -3,3 -3,8 -3,13 -5,2 -9,5 -12,11 0,0 -1,2 -1,4 -6,24 5,22 12,32 4,5 -1,3 6,8 4,4 6,2 9,7 2,4 2,5 5,10l25 -1c3,7 1,11 9,13 6,2 11,2 18,2 9,0 34,1 40,-1 3,0 4,-1 6,-4l4 -5c1,-1 4,-2 4,-2 15,-6 39,7 39,-17 8,0 13,1 23,1l0 -2c16,-1 8,-6 16,-11 6,-3 16,0 21,-4 8,-8 0,-7 15,-12l12 -14c30,0 11,-7 31,-13 7,-2 5,-2 8,-8 2,-4 0,-2 4,-5l-4 1c0,1 -1,1 -1,1l-2 1c1,-7 6,-7 11,-9 10,-4 4,-5 10,-10 6,-4 8,1 15,-4 7,-6 -1,-11 9,-15 4,-2 6,-4 8,-8l7 -11c5,-2 6,-6 8,-11 4,-9 10,-5 15,-11 5,-7 -3,-3 10,-14 5,-4 4,-11 5,-17 1,-7 9,-6 13,-12 3,-4 2,-11 2,-17 0,-1 1,-1 1,-1l2 -1c5,-3 8,-5 9,-12 1,-3 0,-7 0,-11 -1,-6 -2,-8 5,-10 6,-2 9,-5 10,-13 0,-8 2,-19 -5,-23 -3,6 0,5 -6,12 -3,4 -4,6 -6,13 -1,5 -2,12 -3,16 -3,10 -8,2 -13,25 -2,8 -1,7 -7,12 -6,6 -7,16 -9,20 -3,5 0,1 -5,5 -10,7 1,4 -16,22 -4,4 -4,5 -7,11 -3,10 -5,4 -10,10 -4,6 -1,8 -8,12 -8,5 -4,1 -9,10 -4,7 -5,2 -11,7 -7,8 3,6 -9,11 -14,6 -1,8 -15,13 -13,5 -7,6 -16,13 -5,3 -10,4 -13,7 -5,5 -3,7 -10,9 -8,3 -6,1 -13,6 -22,16 -17,6 -26,14l-1 1c-9,10 -14,6 -25,10 -12,5 -1,8 -27,13 -23,4 -13,8 -26,11 -11,2 -24,2 -36,3 -8,2 -44,0 -53,-2 -11,-2 -6,-1 -12,-7 -3,-3 -8,-4 -12,-7 -7,-3 -7,-2 -10,-9 -5,-10 -5,-21 -3,-34 4,-17 10,-13 15,-23 5,-9 -1,-5 9,-10 13,-6 -1,-4 23,-16 2,-1 5,-2 6,-3 5,-3 1,-2 5,-5 7,-7 16,-2 26,-13 8,-8 17,-4 27,-11 7,-5 0,-5 11,-8 29,-6 17,-8 27,-13 7,-3 15,-2 22,-9 2,-2 1,-1 3,-3 3,-3 3,-1 7,-3l10 -9c7,-6 19,-17 23,-25 5,-9 5,-4 10,-10 3,-4 3,-9 6,-13 4,-5 5,0 9,-9 11,-26 12,-14 14,-27z"/>
   <path class="fil0" d="M3369 3072c-4,-8 -18,-6 -22,-1 0,0 -2,4 -2,4 -4,10 6,18 2,32l-9 16c-4,3 -15,5 -21,2 -4,-4 -2,-167 -2,-195 0,-8 0,-13 9,-13 19,2 18,8 21,17 4,8 1,52 1,67 0,10 -1,15 -1,22 24,17 18,4 34,-7 8,-6 3,-8 12,-13 15,-9 0,-5 18,-16 4,-2 6,-5 8,-9 12,0 21,1 31,2 -11,16 -4,11 -17,22l-21 21c-4,3 -22,11 -17,29 1,4 -1,1 1,3l1 -11c9,-6 10,1 14,-9 2,-5 -1,-4 5,-6 14,-6 6,-1 12,-11 4,-7 12,0 15,-17 7,-1 10,-1 11,-8 3,-20 -7,-18 -17,-18 -36,1 -34,-1 -34,15l-13 0c-9,13 3,5 -9,11 -11,5 -8,8 -9,12 -1,4 0,4 -5,4 -12,2 -13,-8 -13,-17l1 -61c0,-33 -5,-17 -12,-28 -2,-3 1,-1 -4,-5 -6,-4 -27,-5 -34,8 -5,10 -2,53 -2,69 0,46 -2,96 0,142 8,6 3,0 7,10 4,6 10,7 18,5 14,-2 8,-2 11,-10 2,-5 7,-1 14,-6 3,-9 0,-23 2,-35 3,-15 6,-17 16,-17z"/>
   <path class="fil0" d="M2879 2296c0,-3 1,-17 2,-21 5,-26 6,-36 6,-66 0,-16 0,-32 0,-48 0,-18 -1,-31 -1,-48l6 -188c-7,0 -5,0 -11,0 -1,6 -4,5 -5,18 -1,19 -1,53 -1,71l-1 144c0,17 2,28 1,45 -1,14 0,86 4,93z"/>
   <path class="fil0" d="M3218 2977c1,0 1,0 1,0l10 2c6,1 6,2 9,5 17,13 31,-2 31,55l0 70c0,7 1,9 0,12 -3,8 -13,4 -22,4l0 11c11,7 24,6 33,0 1,-10 3,-9 3,-16l0 -56c0,-12 1,-26 0,-38 -1,-21 -5,-21 -14,-22 -1,-22 -5,-11 -10,-21l-6 -8c-12,-2 -26,-1 -35,2z"/>
   <path class="fil0" d="M2713 2637c30,0 32,-10 38,-12 13,-5 14,0 23,-11 4,-5 5,-4 11,-7 6,-3 5,-4 8,-9 4,-5 7,-3 10,-7 7,-7 -2,-4 11,-14 6,-4 6,-10 9,-17 4,-10 7,0 12,-21 6,-24 7,-6 12,-24 1,-2 2,-11 3,-14 -7,0 -13,-1 -17,5 -3,5 -3,21 -4,28 -3,2 -5,1 -8,3 -2,2 -3,6 -3,9 0,4 0,8 -1,10 -3,5 -2,3 -7,5l3 2c-9,1 -10,6 -10,16 -17,4 -6,8 -13,13 -5,3 -6,0 -10,3 -3,2 -3,4 -3,8 -21,2 -17,10 -19,15 -11,1 -22,-1 -32,2 -12,3 -16,2 -13,17z"/>
   <path class="fil0" d="M3172 3013c9,0 19,0 29,0 14,0 25,-3 27,5 1,3 0,-1 1,2 0,2 0,6 0,8 -1,22 -3,82 4,95l13 0c-10,-20 0,-80 -6,-94 -3,-10 -9,-17 -19,-20 -11,-3 -14,-9 -30,-3 -5,1 -5,2 -10,3 -6,1 -6,0 -9,4z"/>
   <path class="fil0" d="M2218 2856c-18,0 -35,5 -54,5 -19,0 -36,-5 -55,-5l0 12c6,2 5,4 13,4l48 0c53,1 45,-1 48,-16z"/>
   <path class="fil0" d="M3311 2142c8,0 21,-3 30,-4 8,-1 21,1 29,3 13,2 15,3 22,12l11 13c1,1 1,1 2,2 0,1 1,1 1,1l1 2c2,-4 3,-8 3,-14l-10 -6c-3,-4 -3,-8 -7,-11 -5,-2 -9,0 -12,-4 -5,-4 3,-12 -39,-11 -27,0 -17,-2 -29,5 0,7 0,8 -2,12z"/>
   <path class="fil0" d="M2989 1760c5,-2 26,-4 35,-4 14,0 24,3 36,4 -6,-11 8,-16 -29,-16 -17,0 -31,-2 -42,5l0 11z"/>
   <path class="fil0" d="M3422 3126l0 11c10,2 6,4 20,4 13,0 22,2 23,-6 0,-5 -2,-8 -3,-14l-12 0 -3 10c-8,-1 -16,-5 -25,-5z"/>
  </g>
 </g>
</svg>
