<?xml version="1.0" encoding="UTF-8"?>
<!DOCTYPE svg PUBLIC "-//W3C//DTD SVG 1.1//EN" "http://www.w3.org/Graphics/SVG/1.1/DTD/svg11.dtd">
<!-- Creator: CorelDRAW X7 -->
<svg xmlns="http://www.w3.org/2000/svg" xml:space="preserve" width="3.93701in" height="3.93701in" version="1.1" style="shape-rendering:geometricPrecision; text-rendering:geometricPrecision; image-rendering:optimizeQuality; fill-rule:evenodd; clip-rule:evenodd"
viewBox="0 0 3937 3937"
 xmlns:xlink="http://www.w3.org/1999/xlink">
 <defs>
  <style type="text/css">
   <![CDATA[
    .fil0 {fill:white}
   ]]>
  </style>
 </defs>
 <g id="Layer_x0020_1">
  <metadata id="CorelCorpID_0Corel-Layer"/>
  <g id="_1954341292688">
   <path class="fil0" d="M1320 1714c21,-93 44,-187 66,-283 146,0 300,-35 300,117 0,169 -194,166 -366,166zm-200 -366l-732 0c-74,0 -81,175 -83,233l333 0c-6,69 -35,150 -49,218l-151 663 300 0c33,-142 69,-294 98,-433l101 -448 117 0c-29,123 -54,243 -83,366 -25,106 -75,278 -84,382l300 0 83 -399 166 0c36,152 163,262 184,416 41,304 382,-50 698,-50 174,0 534,217 626,162 120,-71 5,-223 -83,-356 -21,-31 -6,-14 -28,-39 33,-48 34,-22 50,-83l183 349 316 0c-13,-55 -231,-496 -266,-548 71,-106 175,-171 257,-276 89,-116 236,-204 259,-290 -310,0 -276,-33 -395,87 -94,95 -172,224 -254,246l-150 -333 -316 0c16,66 103,206 134,266 45,87 86,179 132,266 -27,41 -42,69 -83,83 -126,-239 -338,-731 -562,-379 -41,64 -83,135 -119,197 -40,71 -184,346 -233,382 -16,-68 -50,-116 -84,-166 83,-44 129,-53 197,-120 181,-182 135,-492 -198,-527 -155,-17 -400,-2 -564,-2 -5,64 -17,54 -17,133z"/>
   <path class="fil0" d="M3332 2645l0 0zm-50 -49c-33,-71 -3,-101 67,-67 -16,60 -9,49 -67,67zm50 49l-18 33c-83,-6 -91,-53 -115,34 231,54 216,-28 216,-250 -152,0 -250,-53 -199,167 49,11 51,16 116,16z"/>
   <path class="fil0" d="M3000 2462l0 183 66 0 0 -133c59,16 50,1 50,133l67 0 -17 -183c-101,-23 -56,0 -166,0z"/>
   <path class="fil0" d="M2883 2629c44,21 18,15 83,16 -1,-43 6,-72 -35,-76 -33,-3 -40,27 -48,60z"/>
  </g>
 </g>
</svg>
